#N canvas 453 128 900 700 12;
#X text 20 10 alien_evolve - Pattern Evolution External;
#X obj 50 100 bng 20 250 50 0 empty empty bang 0 -10 0 12 #fcfcfc #000000 #000000;
#X obj 186 678 print pattern;
#X text 92 100 <- click to generate a pattern;
#X msg 125 210 seed (euclid 3 8);
#X msg 136 241 seed (seq 60 64 67);
#X msg 156 278 seed (chord 60 0);
#X msg 105 447 load seeds.txt;
#X msg 77 477 save corpus.txt;
#X msg 50 510 clear;
#X msg 442 48 generate 5;
#X msg 646 287 popsize 100;
#X msg 633 187 maxdepth 5;
#X msg 619 117 maxsize 500;
#X msg 644 251 mutation 40;
#X msg 637 216 crossover 60;
#X msg 630 153 elite 10;
#X msg 608 54 tournament 5;
#X msg 620 86 diversity 70;
#N canvas 400 200 500 400 modes 0;
#X text 20 20 === GENERATION MODES ===;
#X msg 50 60 mode evolve;
#X text 200 60 <- full genetic algorithm (default);
#X msg 50 90 mode random;
#X text 200 90 <- pure random generation;
#X msg 50 120 mode ngram;
#X text 200 120 <- n-gram completion from corpus;
#X text 20 170 EVOLVE mode:;
#X text 40 190 1 Evaluate population fitness;
#X text 40 210 2 Tournament select parents;
#X text 40 230 3 Crossover/mutate offspring;
#X text 40 250 4 Add best to corpus if novel;
#X text 20 290 RANDOM mode:;
#X text 40 310 Pure random tree generation;
#X text 40 330 respecting operator arities;
#X text 20 370 NGRAM mode:;
#X text 40 390 Sample characters from suffix array;
#X text 40 410 built from corpus text;
#X restore 575 384 pd modes;
#N canvas 400 200 500 350 info 0;
#X text 20 20 === INFO MESSAGES ===;
#X msg 50 60 stats;
#X text 200 60 <- output corpus/population stats;
#X msg 50 100 best 5;
#X text 200 100 <- output top 5 patterns by fitness;
#X msg 50 140 corpus;
#X text 200 140 <- output all corpus patterns;
#X text 20 200 Info outlet format:;
#X text 40 220 stats: corpus N gen N pop N mode name;
#X text 40 250 best: rank fitness pattern;
#X text 40 280 corpus: idx fitness protected pattern;
#X restore 575 414 pd info;
#N canvas 400 200 550 450 example 0;
#X text 20 20 === EXAMPLE USAGE ===;
#X obj 50 60 loadbang;
#X msg 50 90 load seeds.txt;
#X obj 50 120 alien_evolve 50 4;
#X obj 50 170 metro 2000;
#X obj 50 200 bng 20 250 50 0 empty empty empty 0 -10 0 12 #fcfcfc #000000 #000000;
#X obj 50 230 alien_evolve 50 4;
#X obj 50 270 alien;
#X obj 50 310 print sequence;
#X text 200 230 <- generate patterns;
#X text 200 270 <- evaluate patterns;
#X obj 180 270 print info;
#X msg 50 380 stop;
#X connect 1 0 2 0;
#X connect 2 0 3 0;
#X connect 4 0 5 0;
#X connect 5 0 6 0;
#X connect 6 0 7 0;
#X connect 6 1 11 0;
#X connect 7 0 8 0;
#X connect 12 0 4 0;
#X restore 575 444 pd example;
#X text 575 354 Click subpatches for more info:;
#X obj 195 594 alien_evolve;
#X listbox 332 634 71 0 0 0 - - - 0;
#X text 20 35 Generates evolved alien DSL patterns using genetic algorithms and n-gram;
#X connect 1 0 23 0;
#X connect 4 0 23 0;
#X connect 5 0 23 0;
#X connect 6 0 23 0;
#X connect 7 0 23 0;
#X connect 8 0 23 0;
#X connect 9 0 23 0;
#X connect 10 0 23 0;
#X connect 11 0 23 0;
#X connect 12 0 23 0;
#X connect 13 0 23 0;
#X connect 14 0 23 0;
#X connect 15 0 23 0;
#X connect 16 0 23 0;
#X connect 17 0 23 0;
#X connect 18 0 23 0;
#X connect 23 0 2 0;
#X connect 23 0 24 0;
