#N canvas 139 187 953 576 12;
#X obj 44 319 tgl 19 0 empty empty empty 0 -10 0 12 #fcfcfc #000000 #000000 0 1;
#X obj 45 344 metro 111;
#X obj 80 1077 dac~;
#X obj 88 1019 *~ 0.5;
#X obj 272 24 bng 19 250 50 0 empty empty empty 0 -10 0 12 #fcfcfc #000000 #000000;
#X obj 498 20 bng 19 250 50 0 empty empty empty 0 -10 0 12 #fcfcfc #000000 #000000;
#X msg 713 81 \; snare (seq - - - - 2 - - -);
#X floatatom 689 440 5 0 0 0 - - - 0;
#X floatatom 506 252 5 0 0 0 - - - 0;
#X floatatom 250 244 5 0 0 0 - - - 0;
#X obj 249 220 random 100;
#X obj 505 229 random 100;
#X msg 679 43 \; all (seq -);
#X obj 682 19 loadbang;
#X msg 712 208 \; claps (seq - - 22 22 -);
#X msg 355 37 \; all (seq -);
#X obj 267 51 t b b b b b;
#X obj 498 49 t b b b b b;
#X msg 582 33 \; all (seq -);
#X msg 730 166 \; claps (seq 2);
#X obj 70 881 _ kicks;
#X obj 129 881 _ snares;
#X obj 193 881 _ hihats;
#X obj 258 881 _ openhihats;
#X obj 352 881 _ perc;
#X obj 404 881 _ rides;
#X obj 463 880 _ toms;
#X obj 200 415 bng 19 250 50 0 empty empty empty 0 -10 0 12 #fcfcfc #000000 #000000;
#X msg 352 425 \; all (seq -);
#X obj 195 442 t b b b b b b b b b b;
#X obj 45 368 s m;
#X obj 69 857 r m;
#X obj 129 858 r m;
#X obj 192 854 r m;
#X obj 259 855 r m;
#X obj 353 856 r m;
#X obj 403 857 r m;
#X obj 464 857 r m;
#X obj 516 856 r m;
#X obj 514 881 _ woodblock;
#X msg 319 469 \; woodblock (seq - - 2 -);
#X msg 286 87 \; hihats (seq 1 2 3);
#X msg 518 81 \; hihats (seq 12 - - -);
#X msg 500 165 \; snares (seq - - - - 2 - - -);
#X msg 283 131 \; kicks (seq 3 - - -);
#X msg 515 125 \; kicks (seq 1 - - - - - 2 - - - -);
#X msg 250 267 \; openhihats (seq - - \$1 -);
#X msg 506 275 \; openhihats (seq - - \$1 -);
#X obj 603 857 r m;
#X obj 601 882 _ claps;
#X msg 204 784 \; openhihats (seq - - 2 - );
#X msg 276 606 \; perc (delay (seq 2 1 2) 22);
#X msg 307 520 \; toms (delay (seq - - 2 - - 3 - - - -) 11);
#X msg 238 690 \; hihats (grow (seq 2 - -));
#X msg 291 560 \; rides (grow (seq 2 1 2 - 2 - - 3 - - - -));
#X msg 257 648 \; kicks (grow (seq 2 - - - 2 - - 3 - - 2 - -));
#X msg 220 736 \; snares (seq - - - - 2 - - -);
#X msg 689 463 \; snares (seq C4 E4 G4 C5);
#X obj 666 723 alien -unsync;
#X msg 667 692 (seq 1 2 3);
#X msg 698 654 (seq 1 2 3);
#X listbox 666 747 20 0 0 0 - - - 0;
#X connect 0 0 1 0;
#X connect 1 0 30 0;
#X connect 3 0 2 0;
#X connect 3 0 2 1;
#X connect 4 0 16 0;
#X connect 5 0 17 0;
#X connect 7 0 57 0;
#X connect 8 0 47 0;
#X connect 9 0 46 0;
#X connect 10 0 9 0;
#X connect 11 0 8 0;
#X connect 13 0 12 0;
#X connect 16 1 41 0;
#X connect 16 2 44 0;
#X connect 16 3 10 0;
#X connect 16 4 15 0;
#X connect 17 0 43 0;
#X connect 17 0 19 0;
#X connect 17 1 42 0;
#X connect 17 2 45 0;
#X connect 17 3 11 0;
#X connect 17 3 18 0;
#X connect 20 0 3 0;
#X connect 21 0 3 0;
#X connect 22 0 3 0;
#X connect 23 0 3 0;
#X connect 24 0 3 0;
#X connect 25 0 3 0;
#X connect 26 0 3 0;
#X connect 27 0 29 0;
#X connect 29 1 50 0;
#X connect 29 2 56 0;
#X connect 29 3 53 0;
#X connect 29 4 55 0;
#X connect 29 5 51 0;
#X connect 29 6 54 0;
#X connect 29 7 52 0;
#X connect 29 8 40 0;
#X connect 29 9 28 0;
#X connect 31 0 20 0;
#X connect 32 0 21 0;
#X connect 33 0 22 0;
#X connect 34 0 23 0;
#X connect 35 0 24 0;
#X connect 36 0 25 0;
#X connect 37 0 26 0;
#X connect 38 0 39 0;
#X connect 39 0 3 0;
#X connect 48 0 49 0;
#X connect 49 0 3 0;
#X connect 58 0 61 0;
#X connect 59 0 58 0;
