#N canvas 183 34 1287 838 12;
#X declare -lib Gem;
#X obj 113 420 else/square~;
#X floatatom 113 380 5 0 0 0 - - - 0;
#X obj 112 355 mtof;
#X floatatom 112 325 5 0 0 0 - - - 0;
#X obj 113 458 *~;
#X obj 209 273 alien;
#X obj 115 300 else/sequencer;
#X obj 41 -528 metro 120;
#X obj 41 -564 tgl 19 0 empty empty empty 0 -10 0 12 #fcfcfc #000000 #000000 0 1;
#X obj 207 420 else/saw~;
#X obj 183 546 hsl 160 15 500 5000 0 0 empty empty empty -2 -8 0 10 #dcdcdc #000000 #000000 0 1;
#X obj 76 463 vradio 15 1 0 4 empty empty empty 0 -8 0 10 #dcdcdc #000000 #000000 0;
#X text 26 462 lowpass;
#X text 20 478 highpass;
#X text 20 493 bandpass;
#X obj 248 568 hsl 128 15 0 1 0 0 empty empty empty -2 -8 0 10 #dcdcdc #000000 #000000 0 1;
#X text 260 568 Q/resonance (0-1);
#X text 190 543 cutoff/center frequency;
#X obj 76 610 + 1;
#X obj 120 -538 else/out~;
#X obj 116 641 else/xselect~ 4 1000 1;
#X obj 116 610 else/svfilter~ 800 0.5;
#X obj 245 589 nbx 5 14 -1e+37 1e+37 0 0 empty empty empty 0 -8 0 10 #dcdcdc #000000 #000000 0 256;
#X obj 180 569 nbx 5 14 -1e+37 1e+37 0 0 empty empty empty 0 -8 0 10 #dcdcdc #000000 #000000 0 256;
#X text 20 508 bandstop;
#X obj 171 481 else/revdelay~ 500;
#X obj 117 707 freeverb~;
#X msg 418 408 roomsize \$1;
#X msg 418 453 damping \$1;
#X msg 418 497 width \$1;
#X msg 418 541 wet \$1;
#X msg 418 585 dry \$1;
#X obj 430 562 hsl 60 18 0 1 0 1 empty empty dry 2 9 1 12 #d8fcd8 #000000 #000000 5900 0;
#X obj 430 518 hsl 60 18 0 1 0 1 empty empty wet 2 9 1 12 #d8fcd8 #000000 #000000 5900 0;
#X obj 430 474 hsl 60 18 0 1 0 1 empty empty width 2 9 1 12 #fcfcc8 #000000 #000000 5900 0;
#X obj 430 430 hsl 60 18 0 2 0 1 empty empty damping 2 9 1 12 #fce0e0 #000000 #000000 2800 0;
#X obj 430 385 hsl 60 18 0.11 1.1 0 1 empty empty roomsize 2 9 1 12 #fce0e0 #000000 #000000 2500 0;
#X floatatom 394 352 3 0 0 0 - - - 0;
#X floatatom 400 434 3 0 0 0 - - - 0;
#X floatatom 400 479 3 0 0 0 - - - 0;
#X floatatom 400 522 3 0 0 0 - - - 0;
#X floatatom 400 566 3 0 0 0 - - - 0;
#X listbox 224 302 45 0 0 0 - - - 0;
#X obj 115 507 else/lowpass~ 12000;
#X obj 681 448 playdir~;
#X msg 734 421 kicks;
#X obj 775 333 alien;
#X obj 681 360 else/sequencer;
#X listbox 790 362 45 0 0 0 - - - 0;
#X obj 642 241 playdir~;
#X obj 736 126 alien;
#X obj 642 153 else/sequencer;
#X listbox 751 155 45 0 0 0 - - - 0;
#X msg 715 69 (arp (chord 59 1) 0 8);
#X msg 735 98 (delay (add (seq 4 - - 11 - 31 - - - - - 1) 40) 11);
#X msg 695 214 snares;
#X obj 654 709 playdir~;
#X obj 748 594 alien;
#X obj 654 621 else/sequencer;
#X listbox 763 623 45 0 0 0 - - - 0;
#X msg 727 537 (arp (chord 59 1) 0 8);
#X msg 707 682 hihats;
#X msg 747 566 (add (seq 4 - - 11 1 2 3 31 - - - - - 1) 40);
#X obj 40 -503 s clock;
#X obj 642 129 r clock;
#X obj 681 336 r clock;
#X obj 654 596 r clock;
#X obj 642 265 throw~ main;
#X obj 681 472 throw~ main;
#X obj 654 732 throw~ main;
#X obj 120 -563 catch~ main;
#X obj 116 186 r clock;
#X obj 116 734 throw~ main;
#X obj 695 190 loadbang;
#X obj 732 397 loadbang;
#X obj 707 658 loadbang;
#X obj 635 3 playdir~;
#X obj 729 -112 alien;
#X obj 635 -85 else/sequencer;
#X listbox 744 -83 45 0 0 0 - - - 0;
#X msg 708 -169 (arp (chord 59 1) 0 8);
#X obj 635 -109 r clock;
#X obj 635 27 throw~ main;
#X obj 688 -48 loadbang;
#X msg 688 -24 claps;
#X msg 728 -140 (delay (add (seq 4 - - 11 - 31 - - - - - 1) 40) 6);
#X obj 617 -221 playdir~;
#X obj 711 -336 alien;
#X obj 617 -309 else/sequencer;
#X listbox 726 -307 45 0 0 0 - - - 0;
#X msg 690 -393 (arp (chord 59 1) 0 8);
#X obj 617 -333 r clock;
#X obj 617 -197 throw~ main;
#X obj 670 -272 loadbang;
#X msg 670 -248 rides;
#X msg 710 -364 (delay (add (seq 4 - - 11 - 31 - - - - - 1) 40) 2);
#X obj 601 -440 playdir~;
#X obj 695 -555 alien;
#X obj 601 -528 else/sequencer;
#X listbox 710 -526 45 0 0 0 - - - 0;
#X msg 674 -612 (arp (chord 59 1) 0 8);
#X obj 601 -552 r clock;
#X obj 601 -416 throw~ main;
#X obj 654 -491 loadbang;
#X msg 654 -467 woodblock;
#X obj 859 847 playdir~;
#X obj 953 732 alien;
#X obj 859 759 else/sequencer;
#X listbox 968 761 45 0 0 0 - - - 0;
#X msg 932 675 (arp (chord 59 1) 0 8);
#X obj 859 734 r clock;
#X obj 859 870 throw~ main;
#X obj 912 796 loadbang;
#X msg 912 820 openhihats;
#X obj 1110 513 playdir~;
#X obj 1204 398 alien;
#X obj 1110 425 else/sequencer;
#X listbox 1219 427 45 0 0 0 - - - 0;
#X msg 1183 341 (arp (chord 59 1) 0 8);
#X obj 1110 400 r clock;
#X obj 1110 536 throw~ main;
#X obj 1163 462 loadbang;
#X msg 1203 370 (add (seq - - - - - - 4 - - 11 1 2 3 31 - - - - - 1) 40);
#X msg 788 -475 -;
#X msg 848 -439 -;
#X msg 796 -233 -;
#X msg 805 16 -;
#X msg 814 193 -;
#X msg 1149 309 -;
#X msg 818 489 -;
#X msg 1107 674 (seq - - 1 -);
#X msg 774 305 (add (seq - - - - 4 - - 11 - 31 - - - - - 1) 40);
#X msg 1268 299 (seq 4);
#X msg 1163 486 toms;
#X msg 894 687 -;
#X msg 694 -583 (delay (add (seq 4 - - 11 - 31 - - - - - 1) 40) 11);
#X msg 952 704 (delay (seq - - - - - - 4 - - 11 1 2 3 31 - - - - - 1) 40);
#X obj 154 130 loadbang;
#X obj 874 -613 loadbang;
#X obj 864 -396 loadbang;
#X obj 931 -179 loadbang;
#X obj 896 59 loadbang;
#X obj 867 272 loadbang;
#X obj 892 537 loadbang;
#X obj 910 651 loadbang;
#X obj 1201 300 loadbang;
#X obj 1105 640 loadbang;
#X obj 167 -361 gemhead;
#X floatatom 236 -364 0 0 0 0 - - - 0;
#X obj 92 -72 world_light;
#X obj 92 -114 gemhead 1;
#X msg 391 -220 15;
#X msg 354 -220 5;
#X obj 279 -117 cylinder;
#X obj 192 -326 rotateXYZ 26 26 0;
#X floatatom 311 -240 0 0 0 2 size - - 0;
#N canvas 0 22 454 304 gemwin 0;
#X obj 132 136 gemwin;
#X obj 67 89 outlet;
#X obj 67 10 inlet;
#X obj 67 41 route create;
#X msg 67 70 set destroy;
#X msg 182 68 set create;
#X msg 132 112 create \, 1;
#X msg 238 112 destroy;
#N canvas 87 154 247 179 Gem.init 0;
#X obj 59 26 loadbang;
#X msg 118 81 reset;
#X obj 118 113 outlet;
#X obj 59 45 t b b;
#X msg 51 75 lighting 1;
#X connect 0 0 3 0;
#X connect 1 0 2 0;
#X connect 3 0 4 0;
#X connect 3 1 1 0;
#X connect 4 0 2 0;
#X restore 289 80 pd Gem.init;
#X connect 2 0 3 0;
#X connect 3 0 4 0;
#X connect 3 0 6 0;
#X connect 3 1 5 0;
#X connect 3 1 7 0;
#X connect 4 0 1 0;
#X connect 5 0 1 0;
#X connect 6 0 0 0;
#X connect 7 0 0 0;
#X connect 8 0 0 0;
#X restore 64 -436 pd gemwin;
#X obj 258 -487 world_light;
#X obj 258 -529 gemhead 1;
#X obj 258 -510 rotateXYZ 12 54 20;
#X obj 259 -557 declare -lib Gem;
#X msg 420 -165 draw line;
#X obj 191 -296 rotateXYZ 26 26 0;
#X floatatom 322 -82 0 0 0 0 - - - 0;
#X text 371 11 change the number of slices;
#X msg 423 29 15;
#X msg 386 29 5;
#X obj 276 116 cylinder;
#X obj 278 -44 rotateXYZ 26 26 0;
#X floatatom 301 63 0 0 0 2 size - - 0;
#X msg 356 115 draw line;
#X obj 278 -14 rotateXYZ 26 26 0;
#X obj 46 320 * 2;
#X text 117 -588 be careful with your ears;
#X text 90 -641 really basic example of using alien for audio visuals. notice how easy it is to map audio to visuals within the same context;
#X obj 420 -190 loadbang;
#X obj 430 -36 loadbang;
#X msg 64 -460 create;
#X msg 203 216 (arp (chord 50 1) 0 6);
#X obj 194 375 else/adsr~ 0 100 0 100;
#X msg 208 245 (add (seq 4 - - 7 - 11 - - 20 20 20 - - 1) 30);
#X msg 863 243 (seq 2 - - -);
#X msg 190 175 (seq 40 - 42 - 45 - 45 - 60 60 60 -);
#X msg 863 495 (seq 2);
#X msg 585 -375 (euclid 5 8);
#X msg 585 -157 (euclid 5 33);
#X msg 614 75 (euclid 2 11);
#X msg 812 661 (euclid 2 8);
#X msg 401 202 -;
#X msg 590 -584 (euclid 2 16);
#X msg 637 299 (euclid 4 16);
#X msg 687 507 (euclid 4 16);
#X msg 1188 266 (euclid 4 16);
#X connect 0 0 4 0;
#X connect 1 0 0 0;
#X connect 1 0 9 0;
#X connect 1 0 172 0;
#X connect 2 0 1 0;
#X connect 3 0 2 0;
#X connect 3 0 179 0;
#X connect 4 0 25 0;
#X connect 4 0 43 0;
#X connect 5 0 6 1;
#X connect 5 0 42 0;
#X connect 6 0 3 0;
#X connect 7 0 63 0;
#X connect 8 0 7 0;
#X connect 9 0 4 0;
#X connect 10 0 23 0;
#X connect 11 0 18 0;
#X connect 15 0 22 0;
#X connect 18 0 20 0;
#X connect 20 0 26 0;
#X connect 21 0 20 0;
#X connect 21 1 20 1;
#X connect 21 2 20 2;
#X connect 21 3 20 3;
#X connect 22 0 21 2;
#X connect 23 0 21 1;
#X connect 26 0 72 0;
#X connect 27 0 26 0;
#X connect 28 0 26 0;
#X connect 29 0 26 0;
#X connect 30 0 26 0;
#X connect 31 0 26 0;
#X connect 32 0 31 0;
#X connect 32 0 41 0;
#X connect 33 0 30 0;
#X connect 33 0 40 0;
#X connect 34 0 29 0;
#X connect 34 0 39 0;
#X connect 35 0 28 0;
#X connect 35 0 38 0;
#X connect 36 0 27 0;
#X connect 36 0 37 0;
#X connect 43 0 21 0;
#X connect 44 0 68 0;
#X connect 45 0 44 1;
#X connect 46 0 47 1;
#X connect 46 0 48 0;
#X connect 47 0 44 0;
#X connect 49 0 67 0;
#X connect 50 0 51 1;
#X connect 50 0 52 0;
#X connect 51 0 49 0;
#X connect 53 0 50 0;
#X connect 54 0 50 0;
#X connect 55 0 49 1;
#X connect 56 0 69 0;
#X connect 57 0 58 1;
#X connect 57 0 59 0;
#X connect 58 0 56 0;
#X connect 60 0 57 0;
#X connect 61 0 56 1;
#X connect 62 0 57 0;
#X connect 64 0 51 0;
#X connect 65 0 47 0;
#X connect 66 0 58 0;
#X connect 70 0 19 0;
#X connect 71 0 6 0;
#X connect 73 0 55 0;
#X connect 74 0 45 0;
#X connect 75 0 61 0;
#X connect 76 0 82 0;
#X connect 77 0 78 1;
#X connect 77 0 79 0;
#X connect 78 0 76 0;
#X connect 80 0 77 0;
#X connect 81 0 78 0;
#X connect 83 0 84 0;
#X connect 84 0 76 1;
#X connect 85 0 77 0;
#X connect 86 0 92 0;
#X connect 87 0 88 1;
#X connect 87 0 89 0;
#X connect 88 0 86 0;
#X connect 90 0 87 0;
#X connect 91 0 88 0;
#X connect 93 0 94 0;
#X connect 94 0 86 1;
#X connect 95 0 87 0;
#X connect 96 0 102 0;
#X connect 97 0 98 1;
#X connect 97 0 99 0;
#X connect 98 0 96 0;
#X connect 98 0 162 2;
#X connect 100 0 97 0;
#X connect 101 0 98 0;
#X connect 103 0 104 0;
#X connect 104 0 96 1;
#X connect 105 0 111 0;
#X connect 106 0 107 1;
#X connect 106 0 108 0;
#X connect 107 0 105 0;
#X connect 109 0 106 0;
#X connect 110 0 107 0;
#X connect 112 0 113 0;
#X connect 113 0 105 1;
#X connect 114 0 120 0;
#X connect 115 0 116 1;
#X connect 115 0 117 0;
#X connect 116 0 114 0;
#X connect 118 0 115 0;
#X connect 119 0 116 0;
#X connect 121 0 133 0;
#X connect 122 0 115 0;
#X connect 123 0 97 0;
#X connect 124 0 87 0;
#X connect 125 0 77 0;
#X connect 126 0 50 0;
#X connect 127 0 46 0;
#X connect 128 0 115 0;
#X connect 129 0 57 0;
#X connect 130 0 106 0;
#X connect 131 0 46 0;
#X connect 132 0 115 0;
#X connect 133 0 114 1;
#X connect 134 0 106 0;
#X connect 135 0 97 0;
#X connect 136 0 106 0;
#X connect 137 0 180 0;
#X connect 138 0 135 0;
#X connect 139 0 95 0;
#X connect 140 0 85 0;
#X connect 141 0 54 0;
#X connect 142 0 131 0;
#X connect 143 0 62 0;
#X connect 144 0 136 0;
#X connect 145 0 122 0;
#X connect 146 0 136 0;
#X connect 147 0 154 0;
#X connect 147 0 168 0;
#X connect 148 0 154 1;
#X connect 148 0 154 2;
#X connect 150 0 149 0;
#X connect 151 0 153 2;
#X connect 152 0 153 2;
#X connect 152 0 155 0;
#X connect 154 0 162 0;
#X connect 155 0 153 1;
#X connect 156 0 177 0;
#X connect 158 0 159 0;
#X connect 159 0 157 0;
#X connect 161 0 153 0;
#X connect 162 0 153 0;
#X connect 163 0 168 1;
#X connect 163 0 168 2;
#X connect 165 0 167 2;
#X connect 166 0 167 2;
#X connect 166 0 169 0;
#X connect 168 0 171 0;
#X connect 169 0 167 1;
#X connect 170 0 167 0;
#X connect 171 0 167 0;
#X connect 172 0 171 2;
#X connect 175 0 152 0;
#X connect 175 0 161 0;
#X connect 176 0 166 0;
#X connect 176 0 170 0;
#X connect 177 0 156 0;
#X connect 178 0 5 0;
#X connect 179 0 4 1;
#X connect 180 0 5 0;
#X connect 181 0 46 0;
#X connect 182 0 5 0;
#X connect 183 0 57 0;
#X connect 184 0 87 0;
#X connect 185 0 77 0;
#X connect 186 0 50 0;
#X connect 187 0 106 0;
#X connect 188 0 5 0;
#X connect 189 0 97 0;
#X connect 190 0 46 0;
#X connect 191 0 57 0;
#X connect 192 0 115 0;
