#N canvas 260 34 1210 894 12;
#X declare -lib Gem;
#X declare -lib ./instruments -path ./instruments;
#X obj 208 276 alien;
#X obj 114 307 else/sequencer;
#X obj 41 -528 metro 120;
#X obj 41 -564 tgl 19 0 empty empty empty 0 -10 0 12 #fcfcfc #000000 #000000 0 1;
#X obj 182 615 hsl 160 15 500 5000 0 0 empty empty empty -2 -8 0 10 #dcdcdc #000000 #000000 0 1;
#X obj 75 532 vradio 15 1 0 4 empty empty empty 0 -8 0 10 #dcdcdc #000000 #000000 0;
#X text 26 462 lowpass;
#X text 20 478 highpass;
#X text 20 493 bandpass;
#X obj 247 637 hsl 128 15 0 1 0 0 empty empty empty -2 -8 0 10 #dcdcdc #000000 #000000 0 1;
#X text 259 637 Q/resonance (0-1);
#X text 189 612 cutoff/center frequency;
#X obj 75 679 + 1;
#X obj 900 -303 else/out~;
#X obj 115 710 else/xselect~ 4 1000 1;
#X obj 115 679 else/svfilter~ 800 0.5;
#X obj 244 658 nbx 5 14 -1e+37 1e+37 0 0 empty empty empty 0 -8 0 10 #dcdcdc #000000 #000000 0 256;
#X obj 179 638 nbx 5 14 -1e+37 1e+37 0 0 empty empty empty 0 -8 0 10 #dcdcdc #000000 #000000 0 256;
#X text 20 508 bandstop;
#X obj 116 776 freeverb~;
#X msg 417 477 roomsize \$1;
#X msg 417 522 damping \$1;
#X msg 417 566 width \$1;
#X msg 417 610 wet \$1;
#X msg 417 654 dry \$1;
#X obj 429 631 hsl 60 18 0 1 0 1 empty empty dry 2 9 1 12 #d8fcd8 #000000 #000000 2000 0;
#X obj 429 587 hsl 60 18 0 1 0 1 empty empty wet 2 9 1 12 #d8fcd8 #000000 #000000 0 0;
#X obj 429 543 hsl 60 18 0 1 0 1 empty empty width 2 9 1 12 #fcfcc8 #000000 #000000 1800 0;
#X obj 429 499 hsl 60 18 0 2 0 1 empty empty damping 2 9 1 12 #fce0e0 #000000 #000000 3200 0;
#X obj 429 454 hsl 60 18 0.11 1.1 0 1 empty empty roomsize 2 9 1 12 #fce0e0 #000000 #000000 2600 0;
#X floatatom 399 503 3 0 0 0 - - - 0;
#X floatatom 399 548 3 0 0 0 - - - 0;
#X floatatom 399 591 3 0 0 0 - - - 0;
#X floatatom 399 635 3 0 0 0 - - - 0;
#X listbox 222 307 45 0 0 0 - - - 0;
#X obj 40 -503 s clock;
#X obj 900 -328 catch~ main;
#X obj 115 255 r clock;
#X obj 115 803 throw~ main;
#X obj 198 -443 gemhead;
#X floatatom 267 -446 0 0 0 0 - - - 0;
#X obj 394 -488 world_light;
#X obj 394 -511 gemhead 1;
#X msg 362 -310 15;
#X msg 325 -310 5;
#X obj 250 -207 cylinder;
#X obj 223 -408 rotateXYZ 26 26 0;
#X floatatom 282 -330 0 0 0 2 size - - 0;
#N canvas 0 22 454 304 gemwin 0;
#X obj 132 136 gemwin;
#X obj 67 89 outlet;
#X obj 67 10 inlet;
#X obj 67 41 route create;
#X msg 67 70 set destroy;
#X msg 182 68 set create;
#X msg 132 112 create \, 1;
#X msg 238 112 destroy;
#N canvas 87 154 247 179 Gem.init 0;
#X obj 59 26 loadbang;
#X msg 118 81 reset;
#X obj 118 113 outlet;
#X obj 59 45 t b b;
#X msg 51 75 lighting 1;
#X connect 0 0 3 0;
#X connect 1 0 2 0;
#X connect 3 0 4 0;
#X connect 3 1 1 0;
#X connect 4 0 2 0;
#X restore 289 80 pd Gem.init;
#X connect 2 0 3 0;
#X connect 3 0 4 0;
#X connect 3 0 6 0;
#X connect 3 1 5 0;
#X connect 3 1 7 0;
#X connect 4 0 1 0;
#X connect 5 0 1 0;
#X connect 6 0 0 0;
#X connect 7 0 0 0;
#X connect 8 0 0 0;
#X restore 64 -436 pd gemwin;
#X obj 258 -487 world_light;
#X obj 258 -529 gemhead 1;
#X obj 258 -510 rotateXYZ 12 54 20;
#X obj 259 -557 declare -lib Gem;
#X msg 391 -255 draw line;
#X obj 222 -378 rotateXYZ 26 26 0;
#X floatatom 293 -172 0 0 0 0 - - - 0;
#X text 342 -79 change the number of slices;
#X msg 394 -61 15;
#X msg 357 -61 5;
#X obj 257 -5 cylinder;
#X obj 249 -134 rotateXYZ 26 26 0;
#X floatatom 282 -58 0 0 0 2 size - - 0;
#X msg 337 -6 draw line;
#X obj 249 -104 rotateXYZ 26 26 0;
#X obj 356 -191 * 2;
#X text 895 -353 be careful with your ears;
#X text 400 -565 really basic example of using alien for audio visuals. notice how easy it is to map audio to visuals within the same context;
#X obj 391 -280 loadbang;
#X obj 401 -126 loadbang;
#X msg 64 -460 create;
#X floatatom 209 226 5 0 0 0 - - - 0;
#X msg 210 250 (arp (chord \$1 7) 0 6);
#N canvas 23 173 1307 668 drum_kit 0;
#X obj 59 17 inlet;
#X obj 145 18 inlet;
#X obj 538 308 playdir~;
#X obj 538 220 else/sequencer;
#X msg 591 281 woodblock;
#X obj 793 305 playdir~;
#X obj 793 217 else/sequencer;
#X msg 846 278 rides;
#X obj 906 305 playdir~;
#X obj 906 217 else/sequencer;
#X msg 959 278 claps;
#X obj 1018 303 playdir~;
#X obj 1018 215 else/sequencer;
#X msg 1071 276 toms;
#X obj 166 316 playdir~;
#X obj 166 228 else/sequencer;
#X msg 219 289 snares;
#X obj 53 319 playdir~;
#X msg 106 292 kicks;
#X obj 53 231 else/sequencer;
#X obj 397 311 playdir~;
#X obj 397 223 else/sequencer;
#X msg 450 284 openhihats;
#X obj 284 316 playdir~;
#X obj 284 228 else/sequencer;
#X msg 337 289 hihats;
#X obj 78 480 outlet~;
#X obj 676 311 playdir~;
#X obj 676 223 else/sequencer;
#X msg 729 284 perc;
#X obj 1136 302 playdir~;
#X obj 1136 214 else/sequencer;
#X obj 466 49 loadbang;
#X msg 1189 275 crash;
#X obj 145 97 alien_router kick snare hihat openhh woodblock perc ride clap tom crash, f 171;
#X obj 116 205 alien;
#X obj 227 205 alien;
#X obj 342 201 alien;
#X obj 458 195 alien;
#X obj 623 195 alien;
#X obj 740 195 alien;
#X obj 859 188 alien;
#X obj 963 189 alien;
#X obj 1091 183 alien;
#X obj 1204 181 alien;
#X obj 600 16 inlet;
#X msg 600 40 -;
#X obj 660 14 loadbang;
#X connect 0 0 19 0;
#X connect 0 0 15 0;
#X connect 0 0 24 0;
#X connect 0 0 21 0;
#X connect 0 0 3 0;
#X connect 0 0 28 0;
#X connect 0 0 6 0;
#X connect 0 0 9 0;
#X connect 0 0 12 0;
#X connect 0 0 31 0;
#X connect 1 0 34 0;
#X connect 2 0 26 0;
#X connect 3 0 2 0;
#X connect 4 0 2 1;
#X connect 5 0 26 0;
#X connect 6 0 5 0;
#X connect 7 0 5 1;
#X connect 8 0 26 0;
#X connect 9 0 8 0;
#X connect 10 0 8 1;
#X connect 11 0 26 0;
#X connect 12 0 11 0;
#X connect 13 0 11 1;
#X connect 14 0 26 0;
#X connect 15 0 14 0;
#X connect 16 0 14 1;
#X connect 17 0 26 0;
#X connect 18 0 17 1;
#X connect 19 0 17 0;
#X connect 20 0 26 0;
#X connect 21 0 20 0;
#X connect 22 0 20 1;
#X connect 23 0 26 0;
#X connect 24 0 23 0;
#X connect 25 0 23 1;
#X connect 27 0 26 0;
#X connect 28 0 27 0;
#X connect 29 0 27 1;
#X connect 30 0 26 0;
#X connect 31 0 30 0;
#X connect 32 0 18 0;
#X connect 32 0 16 0;
#X connect 32 0 25 0;
#X connect 32 0 22 0;
#X connect 32 0 4 0;
#X connect 32 0 29 0;
#X connect 32 0 7 0;
#X connect 32 0 10 0;
#X connect 32 0 13 0;
#X connect 32 0 33 0;
#X connect 33 0 30 1;
#X connect 34 0 35 0;
#X connect 34 1 36 0;
#X connect 34 2 37 0;
#X connect 34 3 38 0;
#X connect 34 4 39 0;
#X connect 34 5 40 0;
#X connect 34 6 41 0;
#X connect 34 7 42 0;
#X connect 34 8 43 0;
#X connect 34 9 44 0;
#X connect 35 0 19 1;
#X connect 36 0 15 1;
#X connect 37 0 24 1;
#X connect 38 0 21 1;
#X connect 39 0 3 1;
#X connect 40 0 28 1;
#X connect 41 0 6 1;
#X connect 42 0 9 1;
#X connect 43 0 12 1;
#X connect 44 0 31 1;
#X connect 45 0 46 0;
#X connect 46 0 19 1;
#X connect 46 0 15 1;
#X connect 46 0 24 1;
#X connect 46 0 21 1;
#X connect 46 0 3 1;
#X connect 46 0 28 1;
#X connect 46 0 6 1;
#X connect 46 0 9 1;
#X connect 46 0 12 1;
#X connect 46 0 31 1;
#X connect 47 0 46 0;
#X restore 641 -255 pd drum_kit;
#X f 23;
#X obj 640 -276 r clock;
#X obj 639 -96 throw~ main;
#X obj 797 -285 bng 19 250 50 0 empty empty empty 0 -10 0 12 #fcfcfc #000000 #000000;
#X obj 583 -331 s drums;
#X obj 719 -279 r drums;
#X text 821 -287 reset;
#N canvas 92 126 721 567 house_beat_1 0;
#X obj 155 35 inlet;
#X msg 59 169 snare (seq - - - 4 4 - - -);
#X msg 172 243 openhh (seq - - 2 -);
#X msg 31 142 kick (seq 3 - - -);
#X msg 136 220 hihat (seq 2 - - -);
#X msg 212 268 woodblock (seq - - - - 5 - - - );
#X obj 153 60 bng 19 250 50 0 empty empty empty 0 -10 0 12 #fcfcfc #000000 #000000;
#X msg 269 321 perc (seq 1);
#X msg 239 293 ride (seq 1 -);
#X msg 280 348 tom (delay (seq 1 - - -) 12);
#X msg 292 375 crash (delay (seq 1 - - -) 32);
#X obj 158 86 t b b b b b b b b b b;
#X msg 96 196 clap (delay (seq 1 2 3 4 5 6 1 1 1 ) 64);
#X obj 32 481 outlet;
#X connect 0 0 6 0;
#X connect 1 0 13 0;
#X connect 2 0 13 0;
#X connect 3 0 13 0;
#X connect 4 0 13 0;
#X connect 5 0 13 0;
#X connect 6 0 11 0;
#X connect 7 0 13 0;
#X connect 8 0 13 0;
#X connect 9 0 13 0;
#X connect 10 0 13 0;
#X connect 11 0 1 0;
#X connect 11 1 12 0;
#X connect 11 2 4 0;
#X connect 11 3 2 0;
#X connect 11 4 5 0;
#X connect 11 5 8 0;
#X connect 11 6 7 0;
#X connect 11 7 9 0;
#X connect 11 8 10 0;
#X connect 11 9 3 0;
#X connect 12 0 13 0;
#X restore 584 -356 pd house_beat_1;
#X obj 582 -430 bng 19 250 50 0 empty empty empty 0 -10 0 12 #fcfcfc #000000 #000000;
#X msg 591 -406 120;
#X obj 99 -549 r tempo;
#X obj 592 -385 s tempo;
#X obj 784 -336 s drums;
#X obj 784 -431 bng 19 250 50 0 empty empty empty 0 -10 0 12 #fcfcfc #000000 #000000;
#X obj 794 -386 s tempo;
#N canvas 92 126 721 567 dnb_1 0;
#X obj 155 35 inlet;
#X msg 136 220 hihat (seq 2 - - -);
#X msg 212 268 woodblock (seq - - - - 5 - - - );
#X obj 153 60 bng 19 250 50 0 empty empty empty 0 -10 0 12 #fcfcfc #000000 #000000;
#X msg 239 293 ride (seq 1 -);
#X msg 280 348 tom (delay (seq 1 - - -) 12);
#X msg 292 375 crash (delay (seq 1 - - -) 32);
#X obj 158 86 t b b b b b b b b b b;
#X msg 96 196 clap (delay (seq 1 2 3 4 5 6 1 1 1 ) 64);
#X obj 32 481 outlet;
#X obj 69 58 bng 19 250 50 0 empty empty empty 0 -10 0 12 #fcfcfc #000000 #000000;
#X obj 35 93 t b b;
#X msg 31 142 kick (seq 3 - - - - - - - - - 3 - - - - -), f 44;
#X msg 269 321 perc (delay (seq 5) 100);
#X msg 172 243 openhh (seq - - 11 -);
#X msg 59 169 snare (seq - - - - 9 - - -);
#X connect 0 0 3 0;
#X connect 1 0 9 0;
#X connect 2 0 9 0;
#X connect 3 0 7 0;
#X connect 4 0 9 0;
#X connect 5 0 9 0;
#X connect 6 0 9 0;
#X connect 7 0 15 0;
#X connect 7 1 8 0;
#X connect 7 2 1 0;
#X connect 7 3 14 0;
#X connect 7 4 2 0;
#X connect 7 5 4 0;
#X connect 7 6 13 0;
#X connect 7 7 5 0;
#X connect 7 8 6 0;
#X connect 7 9 12 0;
#X connect 8 0 9 0;
#X connect 10 0 11 0;
#X connect 11 0 12 0;
#X connect 11 1 15 0;
#X connect 12 0 9 0;
#X connect 13 0 9 0;
#X connect 14 0 9 0;
#X connect 15 0 9 0;
#X restore 785 -361 pd dnb_1;
#X msg 793 -407 85;
#X obj 702 -336 s drums;
#X obj 702 -431 bng 19 250 50 0 empty empty empty 0 -10 0 12 #fcfcfc #000000 #000000;
#X obj 712 -386 s tempo;
#N canvas 92 126 721 567 grime_1 0;
#X obj 155 35 inlet;
#X obj 153 60 bng 19 250 50 0 empty empty empty 0 -10 0 12 #fcfcfc #000000 #000000;
#X msg 239 293 ride (seq 1 -);
#X msg 280 348 tom (delay (seq 1 - - -) 12);
#X obj 158 86 t b b b b b b b b b b;
#X msg 96 196 clap (delay (seq 1 2 3 4 5 6 1 1 1 ) 64);
#X obj 32 481 outlet;
#X obj 69 58 bng 19 250 50 0 empty empty empty 0 -10 0 12 #fcfcfc #000000 #000000;
#X obj 35 93 t b b;
#X msg 31 142 kick (seq 3 - - - - - - - - - 3 - - - - -), f 44;
#X msg 269 321 perc (delay (seq 5) 100);
#X msg 136 220 hihat (delay (seq 2 2 2 -) 5);
#X msg 59 169 snare (seq - - - - - - - - 2 - - - - - - -);
#X msg 212 268 woodblock (delay (seq - - - - 5 - - (seq 1 2 3) - ) 16);
#X msg 292 375 crash (delay (seq 1 - - -) 32);
#X msg 172 243 openhh (seq - - 2 -);
#X connect 0 0 1 0;
#X connect 1 0 4 0;
#X connect 2 0 6 0;
#X connect 3 0 6 0;
#X connect 4 0 12 0;
#X connect 4 1 5 0;
#X connect 4 2 11 0;
#X connect 4 3 15 0;
#X connect 4 4 13 0;
#X connect 4 5 2 0;
#X connect 4 6 10 0;
#X connect 4 7 3 0;
#X connect 4 8 14 0;
#X connect 4 9 9 0;
#X connect 5 0 6 0;
#X connect 7 0 8 0;
#X connect 8 0 9 0;
#X connect 8 1 12 0;
#X connect 9 0 6 0;
#X connect 10 0 6 0;
#X connect 11 0 6 0;
#X connect 12 0 6 0;
#X connect 13 0 6 0;
#X connect 14 0 6 0;
#X connect 15 0 6 0;
#X restore 703 -361 pd grime_1;
#X msg 711 -407 100;
#X obj 669 -198 else/revdelay~ 111;
#X obj 668 -133 *~;
#X obj 686 -159 tgl 19 0 empty empty empty 0 -10 0 12 #fcfcfc #000000 #000000 0 1;
#X text 715 -161 press this for a reverse fx;
#X obj 38 -634 declare -lib ./instruments -path ./instruments;
#X obj 115 580 alien_monosynth~;
#X floatatom 226 555 5 0 0 0 - - - 0;
#X obj 303 171 alien;
#X obj 209 198 else/sequencer;
#X obj 209 172 r clock;
#X obj 114 331 - 12;
#X obj 304 120 loadbang;
#X floatatom 203 452 5 0 0 0 - - - 0;
#X obj 147 476 alien_monosynth2~;
#X floatatom 263 452 5 0 0 0 - - - 0;
#X obj 702 -456 loadbang;
#X obj 205 401 loadbang;
#X msg 205 425 1;
#X msg 304 146 (seq (delay 60 16) (delay 61 16) (delay 65 16) (delay 58 16)), f 62;
#X msg 243 426 1000;
#X msg 288 425 200;
#X connect 0 0 1 1;
#X connect 0 0 34 0;
#X connect 1 0 104 0;
#X connect 1 0 107 0;
#X connect 2 0 35 0;
#X connect 3 0 2 0;
#X connect 4 0 17 0;
#X connect 5 0 12 0;
#X connect 9 0 16 0;
#X connect 12 0 14 0;
#X connect 14 0 19 0;
#X connect 15 0 14 0;
#X connect 15 1 14 1;
#X connect 15 2 14 2;
#X connect 15 3 14 3;
#X connect 16 0 15 2;
#X connect 17 0 15 1;
#X connect 19 0 38 0;
#X connect 20 0 19 0;
#X connect 21 0 19 0;
#X connect 22 0 19 0;
#X connect 23 0 19 0;
#X connect 24 0 19 0;
#X connect 25 0 24 0;
#X connect 25 0 33 0;
#X connect 26 0 23 0;
#X connect 26 0 32 0;
#X connect 27 0 22 0;
#X connect 27 0 31 0;
#X connect 28 0 21 0;
#X connect 28 0 30 0;
#X connect 29 0 20 0;
#X connect 36 0 13 0;
#X connect 37 0 1 0;
#X connect 39 0 46 0;
#X connect 39 0 60 0;
#X connect 40 0 46 1;
#X connect 40 0 46 2;
#X connect 42 0 41 0;
#X connect 43 0 45 2;
#X connect 44 0 45 2;
#X connect 44 0 47 0;
#X connect 46 0 54 0;
#X connect 47 0 45 1;
#X connect 48 0 69 0;
#X connect 50 0 51 0;
#X connect 51 0 49 0;
#X connect 53 0 45 0;
#X connect 54 0 45 0;
#X connect 55 0 60 1;
#X connect 55 0 60 2;
#X connect 57 0 59 2;
#X connect 58 0 59 2;
#X connect 58 0 61 0;
#X connect 60 0 63 0;
#X connect 61 0 59 1;
#X connect 62 0 59 0;
#X connect 63 0 59 0;
#X connect 64 0 63 2;
#X connect 67 0 44 0;
#X connect 67 0 53 0;
#X connect 68 0 58 0;
#X connect 68 0 62 0;
#X connect 69 0 48 0;
#X connect 70 0 71 0;
#X connect 71 0 0 0;
#X connect 72 0 74 0;
#X connect 72 0 94 0;
#X connect 73 0 72 0;
#X connect 75 0 72 2;
#X connect 77 0 72 1;
#X connect 79 0 76 0;
#X connect 80 0 79 0;
#X connect 80 0 81 0;
#X connect 81 0 83 0;
#X connect 82 0 2 1;
#X connect 85 0 87 0;
#X connect 85 0 88 0;
#X connect 87 0 84 0;
#X connect 88 0 86 0;
#X connect 90 0 92 0;
#X connect 90 0 93 0;
#X connect 92 0 89 0;
#X connect 93 0 91 0;
#X connect 94 0 95 0;
#X connect 95 0 74 0;
#X connect 96 0 95 1;
#X connect 99 0 15 0;
#X connect 100 0 99 1;
#X connect 101 0 102 1;
#X connect 102 0 70 0;
#X connect 103 0 102 0;
#X connect 104 0 99 0;
#X connect 105 0 112 0;
#X connect 106 0 107 1;
#X connect 107 0 15 0;
#X connect 108 0 107 2;
#X connect 109 0 90 0;
#X connect 110 0 111 0;
#X connect 110 0 113 0;
#X connect 110 0 114 0;
#X connect 111 0 106 0;
#X connect 112 0 101 0;
#X connect 113 0 100 0;
#X connect 114 0 108 0;
