#N canvas 246 34 771 379 12;
#X declare -lib Gem;
#X declare -lib ./instruments -path ./instruments;
#X declare -path ./vj_objects;
#X declare -lib Gem;
#X obj 20 155 metro 120;
#X obj 20 119 tgl 19 0 empty empty empty 0 -10 0 12 #fcfcfc #000000 #000000 0 1;
#X obj 407 152 else/out~;
#X obj 19 180 s clock;
#X obj 407 127 catch~ main;
#X obj 15 26 declare -lib Gem;
#X text 508 183 be careful with your ears;
#X obj 78 134 r tempo;
#X obj 17 49 declare -lib ./instruments -path ./instruments;
#N canvas 522 93 888 733 visuals 0;
#X text 123 50 I can crash Pd if I delete GEM objects without having a GEM window open FYI;
#N canvas 339 345 450 300 puzzle_effect 0;
#X obj 42 173 outlet;
#X obj 43 117 inlet;
#N canvas 565 255 787 662 togglefx 0;
#X obj 89 290 outlet;
#X obj 36 37 inlet;
#X obj 121 172 spigot 1;
#X obj 32 245 spigot 0;
#X msg 127 94 0 1;
#X msg 165 94 1 0;
#X obj 122 125 unpack 0 0;
#X obj 124 37 inlet;
#X obj 189 297 outlet;
#X obj 237 27 inlet;
#X obj 299 58 loadbang;
#X obj 124 68 route 0 1;
#X connect 1 0 3 0;
#X connect 1 0 2 0;
#X connect 2 0 8 0;
#X connect 3 0 0 0;
#X connect 4 0 6 0;
#X connect 5 0 6 0;
#X connect 6 0 3 1;
#X connect 6 1 2 1;
#X connect 7 0 11 0;
#X connect 9 0 0 0;
#X connect 10 0 4 0;
#X connect 11 0 4 0;
#X connect 11 1 5 0;
#X restore 43 143 pd togglefx;
#X obj 144 143 pix_puzzle;
#X msg 144 117 size \$1 \$1;
#X floatatom 151 76 5 0 0 0 - - - 0;
#X obj 95 57 inlet;
#X obj 157 43 inlet;
#X obj 100 103 != 1;
#X connect 1 0 2 0;
#X connect 2 0 0 0;
#X connect 2 1 3 0;
#X connect 3 0 2 2;
#X connect 4 0 3 0;
#X connect 5 0 4 0;
#X connect 6 0 8 0;
#X connect 7 0 5 0;
#X connect 8 0 2 1;
#X restore 972 212 pd puzzle_effect;
#X obj 1095 121 tgl 20 0 empty empty empty 0 -10 0 12 #fcfcfc #000000 #000000 0 1;
#X obj 1006 374 tgl 20 0 empty empty empty 0 -10 0 12 #fcfcfc #000000 #000000 0 1;
#X floatatom 1075 376 5 0 0 0 - - - 0;
#N canvas 225 340 667 458 movement_effect 0;
#X obj 42 173 outlet;
#X obj 43 117 inlet;
#N canvas 565 255 787 662 togglefx 0;
#X obj 89 290 outlet;
#X obj 36 37 inlet;
#X obj 121 172 spigot 1;
#X obj 32 245 spigot 0;
#X msg 127 94 0 1;
#X msg 165 94 1 0;
#X obj 122 125 unpack 0 0;
#X obj 124 37 inlet;
#X obj 189 297 outlet;
#X obj 237 27 inlet;
#X obj 299 58 loadbang;
#X obj 124 68 route 0 1;
#X connect 1 0 3 0;
#X connect 1 0 2 0;
#X connect 2 0 8 0;
#X connect 3 0 0 0;
#X connect 4 0 6 0;
#X connect 5 0 6 0;
#X connect 6 0 3 1;
#X connect 6 1 2 1;
#X connect 7 0 11 0;
#X connect 9 0 0 0;
#X connect 10 0 4 0;
#X connect 11 0 4 0;
#X connect 11 1 5 0;
#X restore 43 143 pd togglefx;
#X obj 95 57 inlet;
#X floatatom 322 130 3 0 100 2 lo_threshold - - 0;
#X obj 321 146 / 100;
#X obj 278 172 pix_movement2;
#X floatatom 376 151 3 0 100 2 threshold - - 0;
#X obj 375 167 / 100;
#X obj 277 64 pix_2grey;
#X obj 108 103 != 1;
#X connect 1 0 2 0;
#X connect 2 0 0 0;
#X connect 2 1 9 0;
#X connect 3 0 10 0;
#X connect 4 0 5 0;
#X connect 5 0 6 1;
#X connect 6 0 2 2;
#X connect 7 0 8 0;
#X connect 8 0 6 2;
#X connect 9 0 6 0;
#X connect 10 0 2 1;
#X restore 972 145 pd movement_effect;
#N canvas 425 264 544 372 lumaofset_effect 0;
#X obj 42 173 outlet;
#X obj 43 117 inlet;
#N canvas 565 255 787 662 togglefx 0;
#X obj 89 290 outlet;
#X obj 36 37 inlet;
#X obj 121 172 spigot 1;
#X obj 32 245 spigot 0;
#X msg 127 94 0 1;
#X msg 165 94 1 0;
#X obj 122 125 unpack 0 0;
#X obj 124 37 inlet;
#X obj 189 297 outlet;
#X obj 237 27 inlet;
#X obj 299 58 loadbang;
#X obj 124 68 route 0 1;
#X connect 1 0 3 0;
#X connect 1 0 2 0;
#X connect 2 0 8 0;
#X connect 3 0 0 0;
#X connect 4 0 6 0;
#X connect 5 0 6 0;
#X connect 6 0 3 1;
#X connect 6 1 2 1;
#X connect 7 0 11 0;
#X connect 9 0 0 0;
#X connect 10 0 4 0;
#X connect 11 0 4 0;
#X connect 11 1 5 0;
#X restore 43 143 pd togglefx;
#X obj 95 57 inlet;
#X obj 157 43 inlet;
#X obj 201 171 pix_lumaoffset;
#X floatatom 246 113 5 0 0 2 offset - - 0;
#X floatatom 294 116 5 0 0 2 gap - - 0;
#X obj 283 133 tgl 15 0 empty empty empty 0 -6 0 8 #fcfcfc #000000 #000000 0 1;
#X msg 283 151 smooth \$1;
#X msg 215 150 fill \$1;
#X obj 215 132 tgl 15 0 empty empty empty 0 -6 0 8 #fcfcfc #000000 #000000 0 1;
#X obj 210 45 inlet;
#X obj 266 44 inlet;
#X obj 108 103 != 1;
#X connect 1 0 2 0;
#X connect 2 0 0 0;
#X connect 2 1 5 0;
#X connect 3 0 14 0;
#X connect 4 0 11 0;
#X connect 5 0 2 2;
#X connect 6 0 5 1;
#X connect 7 0 5 2;
#X connect 8 0 9 0;
#X connect 9 0 5 0;
#X connect 10 0 5 0;
#X connect 11 0 10 0;
#X connect 12 0 6 0;
#X connect 13 0 7 0;
#X connect 14 0 2 1;
#X restore 976 401 pd lumaofset_effect;
#X obj 1043 368 tgl 20 0 empty empty empty 0 -10 0 12 #fcfcfc #000000 #000000 0 1;
#X obj 1014 450 tgl 20 0 empty empty empty 0 -10 0 12 #fcfcfc #000000 #000000 0 1;
#N canvas 743 479 450 300 gain_effect 0;
#X obj 42 173 outlet;
#X obj 43 117 inlet;
#N canvas 569 279 787 662 togglefx 0;
#X obj 89 290 outlet;
#X obj 36 37 inlet;
#X obj 121 172 spigot 1;
#X obj 32 245 spigot 0;
#X msg 127 94 0 1;
#X msg 165 94 1 0;
#X obj 122 125 unpack 0 0;
#X obj 124 37 inlet;
#X obj 189 297 outlet;
#X obj 237 27 inlet;
#X obj 299 58 loadbang;
#X obj 124 68 route 0 1;
#X connect 1 0 3 0;
#X connect 1 0 2 0;
#X connect 2 0 8 0;
#X connect 3 0 0 0;
#X connect 4 0 6 0;
#X connect 5 0 6 0;
#X connect 6 0 3 1;
#X connect 6 1 2 1;
#X connect 7 0 11 0;
#X connect 9 0 0 0;
#X connect 10 0 4 0;
#X connect 11 0 4 0;
#X connect 11 1 5 0;
#X restore 43 143 pd togglefx;
#X floatatom 151 76 5 0 0 0 - - - 0;
#X obj 95 57 inlet;
#X obj 157 43 inlet;
#X obj 142 177 pix_gain;
#X msg 267 124 saturate \$1;
#X obj 272 94 tgl 18 0 empty empty empty 0 -9 0 10 #fcfcfc #000000 #000000 0 1;
#X obj 97 103 != 1;
#X connect 1 0 2 0;
#X connect 2 0 0 0;
#X connect 2 1 6 0;
#X connect 3 0 6 1;
#X connect 4 0 9 0;
#X connect 5 0 3 0;
#X connect 6 0 2 2;
#X connect 7 0 6 0;
#X connect 8 0 7 0;
#X connect 9 0 2 1;
#X restore 975 489 pd gain_effect;
#X obj 1072 458 / 10;
#X obj 1025 183 tgl 20 0 empty empty empty 0 -10 0 12 #fcfcfc #000000 #000000 0 1;
#X floatatom 1072 433 5 0 0 0 - - - 0;
#X obj 439 413 separator;
#X floatatom 1081 187 5 0 0 0 - - - 0;
#X obj 221 800 tgl 19 0 empty empty empty 0 -10 0 12 #fcfcfc #000000 #000000 0 1;
#X obj 127 759 separator;
#X msg 199 768 4;
#X obj 168 675 bng 20 250 50 0 empty empty empty 0 -10 0 12 #fcfcfc #000000 #000000;
#X obj 174 706 i;
#X floatatom 174 729 5 0 0 0 - - - 0;
#X obj 207 704 + 1;
#X obj 229 748 loadbang;
#X msg 229 773 1;
#X obj 212 499 tgl 19 0 empty empty empty 0 -10 0 12 #fcfcfc #000000 #000000 0 1;
#X obj 1008 542 tgl 20 0 empty empty empty 0 -10 0 12 #fcfcfc #000000 #000000 0 1;
#N canvas 384 200 798 473 time_filtering 0;
#X obj 42 173 outlet;
#X obj 43 117 inlet;
#N canvas 569 279 787 662 togglefx 0;
#X obj 89 290 outlet;
#X obj 36 37 inlet;
#X obj 121 172 spigot 1;
#X obj 32 245 spigot 0;
#X msg 127 94 0 1;
#X msg 165 94 1 0;
#X obj 122 125 unpack 0 0;
#X obj 124 37 inlet;
#X obj 189 297 outlet;
#X obj 237 27 inlet;
#X obj 299 58 loadbang;
#X obj 124 68 route 0 1;
#X connect 1 0 3 0;
#X connect 1 0 2 0;
#X connect 2 0 8 0;
#X connect 3 0 0 0;
#X connect 4 0 6 0;
#X connect 5 0 6 0;
#X connect 6 0 3 1;
#X connect 6 1 2 1;
#X connect 7 0 11 0;
#X connect 9 0 0 0;
#X connect 10 0 4 0;
#X connect 11 0 4 0;
#X connect 11 1 5 0;
#X restore 43 143 pd togglefx;
#X obj 95 57 inlet;
#X obj 195 60 inlet;
#X floatatom 198 178 5 0 0 0 - - - 0;
#X obj 185 228 pix_tIIR 2 2;
#X obj 198 198 * 0.01;
#X obj 198 133 unpack 30 60 10 50 50 -20;
#X floatatom 247 178 5 0 0 0 - - - 0;
#X obj 247 198 * 0.01;
#X floatatom 294 178 5 0 0 0 - - - 0;
#X obj 294 198 * 0.01;
#X floatatom 343 178 5 0 0 0 - - - 0;
#X obj 343 198 * 0.01;
#X floatatom 390 178 5 0 0 0 - - - 0;
#X obj 390 198 * 0.01;
#X floatatom 439 178 5 0 0 0 - - - 0;
#X obj 439 198 * 0.01;
#X msg 198 87 bang;
#X obj 198 109 pack 30 60 10 50 50 -20;
#X obj 264 40 inlet;
#X obj 307 40 inlet;
#X obj 349 39 inlet;
#X obj 392 39 inlet;
#X obj 435 39 inlet;
#X obj 478 39 inlet;
#X obj 108 103 != 1;
#X connect 1 0 2 0;
#X connect 2 0 0 0;
#X connect 2 1 6 0;
#X connect 3 0 27 0;
#X connect 4 0 19 0;
#X connect 5 0 7 0;
#X connect 6 0 2 2;
#X connect 7 0 6 1;
#X connect 8 0 5 0;
#X connect 8 1 9 0;
#X connect 8 2 11 0;
#X connect 8 3 13 0;
#X connect 8 4 15 0;
#X connect 8 5 17 0;
#X connect 9 0 10 0;
#X connect 10 0 6 2;
#X connect 11 0 12 0;
#X connect 12 0 6 3;
#X connect 13 0 14 0;
#X connect 14 0 6 4;
#X connect 15 0 16 0;
#X connect 16 0 6 5;
#X connect 17 0 18 0;
#X connect 18 0 6 6;
#X connect 19 0 20 0;
#X connect 20 0 8 0;
#X connect 21 0 5 0;
#X connect 22 0 9 0;
#X connect 23 0 11 0;
#X connect 24 0 13 0;
#X connect 25 0 15 0;
#X connect 26 0 17 0;
#X connect 27 0 2 1;
#X restore 972 577 pd time_filtering;
#X f 48;
#X floatatom 1093 547 5 0 0 0 - - - 0;
#X floatatom 1136 552 5 0 0 0 - - - 0;
#X floatatom 1177 528 5 0 0 0 - - - 0;
#X floatatom 1218 551 5 0 0 0 - - - 0;
#X floatatom 1259 527 5 0 0 0 - - - 0;
#X floatatom 1301 546 5 0 0 0 - - - 0;
#X obj 1051 545 bng 19 250 50 0 empty empty empty 0 -10 0 12 #fcfcfc #000000 #000000;
#N canvas 0 44 1470 830 particle_system 0;
#X obj 103 160 part_head;
#X text 327 187 the velocity domain;
#X text 326 202 a sphere at 0 \, 0.2 \, 0;
#X text 327 221 radius = 0.3;
#X msg 302 247 0 0.2 0 0.3;
#X msg 413 247 0.2 0 0 0.3;
#X obj 107 410 part_render;
#X obj 107 208 part_size 1;
#X msg 197 185 2;
#X obj 107 284 part_color;
#X msg 130 230 1 0 0;
#X obj 107 341 part_source 5;
#X msg 142 258 0 1 0;
#X msg 167 184 1;
#X obj 107 311 part_velocity sphere 0 0.02 0 0.03;
#X obj 107 372 part_killold 100;
#X obj 105 564 pix_texture;
#X floatatom 611 811 5 0 0 0 - - - 0;
#X obj 611 833 / 100;
#X obj 535 870 cube 0.1, f 12;
#X msg 603 923 draw line;
#X msg 610 946 draw fill;
#X msg 616 967 draw point;
#X obj 112 124 separator;
#X obj 173 -51 inlet;
#X text 433 310 <domain>: one of "point" \, "line" \, "triangle" \, "plane" \, "box" \, "sphere" \, "cylinder" \, "cone" \, "blob" \, "disc" \, "rectangle";
#X text 432 351 <arguments>: up to 9 floats \, defining the specified domain (like "x y z" for "point" \, "x1 y1 z1 x2 y2 z2" for "line" \, "x y z r" for "sphere" \, ...). The meaning of the arguments depends -of course- on the domain.;
#X msg 548 105 symbol sphere;
#X msg 536 229 0 0.1 0 0.1;
#X msg 535 203 0.1 -0.1 0 0.05;
#X text 535 187 arguments;
#X obj 560 704 rotateXYZ 0 0 90;
#X obj 586 553 metro 11;
#X obj 586 466 tgl 20 0 empty empty empty 0 -10 0 12 #fcfcfc #000000 #000000 0 1;
#N canvas 117 666 450 300 movement 0;
#X obj 39 113 i;
#X obj 81 112 + 1;
#X obj 36 230 outlet;
#X obj 28 29 inlet;
#X connect 0 0 1 0;
#X connect 0 0 2 0;
#X connect 1 0 0 1;
#X connect 3 0 0 0;
#X restore 591 597 pd movement;
#N canvas 117 666 450 300 movement 0;
#X obj 39 113 i;
#X obj 81 112 + 1;
#X obj 36 230 outlet;
#X obj 28 29 inlet;
#X connect 0 0 1 0;
#X connect 0 0 2 0;
#X connect 1 0 0 1;
#X connect 3 0 0 0;
#X restore 625 623 pd movement;
#N canvas 117 666 450 300 movement 0;
#X obj 39 113 i;
#X obj 81 112 + 1;
#X obj 36 230 outlet;
#X obj 28 29 inlet;
#X connect 0 0 1 0;
#X connect 0 0 2 0;
#X connect 1 0 0 1;
#X connect 3 0 0 0;
#X restore 660 656 pd movement;
#X floatatom 685 519 5 0 0 0 - - - 0;
#X msg 561 136 symbol cone;
#X obj 889 295 i;
#X obj 931 294 + 1;
#X obj 877 168 bng 20 250 50 0 empty empty empty 0 -10 0 12 #fcfcfc #000000 #000000;
#X floatatom 888 321 5 0 0 0 - - - 0;
#X obj 888 345 % 3;
#X floatatom 888 376 5 0 0 0 - - - 0;
#X obj 888 400 sel 0 1 2, f 24;
#X obj 869 446 bng 20 250 50 0 empty empty empty 0 -10 0 12 #fcfcfc #000000 #000000;
#X obj 932 469 bng 20 250 50 0 empty empty empty 0 -10 0 12 #fcfcfc #000000 #000000;
#X obj 997 464 bng 20 250 50 0 empty empty empty 0 -10 0 12 #fcfcfc #000000 #000000;
#X obj 869 99 inlet;
#X obj 191 35 inlet;
#X obj 150 81 spigot;
#X msg 291 453 open textures/3.png;
#X msg 283 482 open textures/2.png;
#X msg 282 512 open textures/1.png;
#X obj 104 475 pix_image textures/1.png;
#X obj 370 812 outlet;
#X obj 703 829 loadbang;
#X obj 1156 472 inlet;
#X connect 0 0 7 0;
#X connect 4 0 14 2;
#X connect 5 0 14 2;
#X connect 6 0 55 0;
#X connect 6 0 19 0;
#X connect 7 0 9 0;
#X connect 8 0 7 1;
#X connect 9 0 14 0;
#X connect 10 0 9 1;
#X connect 11 0 15 0;
#X connect 12 0 9 2;
#X connect 13 0 7 1;
#X connect 14 0 11 0;
#X connect 15 0 6 0;
#X connect 16 0 31 0;
#X connect 17 0 18 0;
#X connect 18 0 19 1;
#X connect 20 0 19 0;
#X connect 21 0 19 0;
#X connect 22 0 19 0;
#X connect 23 0 0 0;
#X connect 24 0 51 0;
#X connect 27 0 14 1;
#X connect 28 0 14 2;
#X connect 31 0 56 0;
#X connect 31 0 19 0;
#X connect 32 0 34 0;
#X connect 32 0 35 0;
#X connect 32 0 36 0;
#X connect 33 0 32 0;
#X connect 34 0 31 1;
#X connect 35 0 31 2;
#X connect 36 0 31 3;
#X connect 37 0 32 1;
#X connect 38 0 14 1;
#X connect 39 0 40 0;
#X connect 39 0 42 0;
#X connect 40 0 39 1;
#X connect 41 0 39 0;
#X connect 42 0 43 0;
#X connect 43 0 44 0;
#X connect 44 0 45 0;
#X connect 45 0 46 0;
#X connect 45 1 47 0;
#X connect 45 2 48 0;
#X connect 46 0 52 0;
#X connect 47 0 53 0;
#X connect 48 0 54 0;
#X connect 49 0 41 0;
#X connect 50 0 51 1;
#X connect 50 0 33 0;
#X connect 51 0 23 0;
#X connect 52 0 53 0;
#X connect 52 0 55 0;
#X connect 53 0 55 0;
#X connect 54 0 55 0;
#X connect 55 0 16 0;
#X connect 57 0 20 0;
#X connect 58 0 17 0;
#X restore 427 521 pd particle_system;
#X obj 490 496 tgl 20 0 empty empty empty 0 -10 0 12 #fcfcfc #000000 #000000 0 1;
#X obj 575 498 bng 20 250 50 0 empty empty empty 0 -10 0 12 #fcfcfc #000000 #000000;
#X obj 428 444 separator;
#X obj 1133 206 else/drunkard 1 0 999;
#X obj 1137 174 metro 11;
#X obj 1139 145 tgl 19 0 empty empty empty 0 -10 0 12 #fcfcfc #000000 #000000 0 1;
#X obj 426 471 rotateXYZ 0 0 90;
#X msg 214 468 0;
#X obj 125 86 declare -path ./vj_objects;
#X obj 153 824 video, f 15;
#X obj 1215 44 loadbang;
#X obj 518 419 loadbang;
#X msg 518 443 1;
#X floatatom 1119 377 5 0 0 0 - - - 0;
#X obj 124 524 separator;
#N canvas 92 126 842 607 alien_visual_rig 0;
#X obj 38 96 gemframebuffer;
#X obj 38 142 t a a b;
#X obj 38 119 translateXYZ 0 0 -4;
#X obj 186 51 loadbang;
#X obj 38 166 t a b;
#X msg 82 168 snap;
#X obj 38 218 t a b;
#X msg 218 232 1;
#X msg 143 97 dimen 1024 768;
#X obj 38 194 pix_snap 0 0 1024 768;
#X obj 38 73 gemhead 11;
#X obj 38 254 pix_buffer_write framebuffer;
#X obj 38 279 pix_buffer framebuffer 2;
#X obj 228 279 separator;
#N canvas 0 37 1470 891 light 0;
#X obj 225 45 gemhead 10;
#X floatatom 258 78 5 0 0 0 - - - 0;
#X floatatom 299 77 5 0 0 0 - - - 0;
#X floatatom 341 78 5 0 0 0 - - - 0;
#X msg 319 150 1 0 0;
#X obj 225 227 world_light;
#X msg 333 173 0.4 0.4 0.4;
#X msg 309 127 0 0 0;
#X obj 228 160 tgl 15 0 empty empty empty 0 -6 0 8 #fcfcfc #000000 #000000 0 1;
#X msg 228 181 debug \$1;
#X obj 225 103 rotateXYZ 0 30 0;
#X obj 27 51 gemhead 10;
#X floatatom 60 84 5 0 0 0 - - - 0;
#X floatatom 101 83 5 0 0 0 - - - 0;
#X floatatom 143 84 5 0 0 0 - - - 0;
#X msg 121 156 1 0 0;
#X obj 27 233 world_light;
#X msg 130 173 0.4 0.4 0.4;
#X msg 111 133 0 0 0;
#X obj 30 166 tgl 15 0 empty empty empty 0 -6 0 8 #fcfcfc #000000 #000000 0 1;
#X msg 30 187 debug \$1;
#X obj 27 109 rotateXYZ 0 -90 0;
#X msg 362 225 0.8 0.8 0.8;
#X msg 144 199 0.7 0.7 0.7;
#X msg 346 198 0.6 0.6 0.6;
#X obj 408 87 loadbang;
#X connect 0 0 10 0;
#X connect 1 0 10 1;
#X connect 2 0 10 2;
#X connect 3 0 10 3;
#X connect 4 0 5 1;
#X connect 6 0 5 1;
#X connect 7 0 5 1;
#X connect 8 0 9 0;
#X connect 9 0 5 0;
#X connect 10 0 5 0;
#X connect 11 0 21 0;
#X connect 12 0 21 1;
#X connect 13 0 21 2;
#X connect 14 0 21 3;
#X connect 15 0 16 1;
#X connect 17 0 16 1;
#X connect 18 0 16 1;
#X connect 19 0 20 0;
#X connect 20 0 16 0;
#X connect 21 0 16 0;
#X connect 22 0 5 1;
#X connect 23 0 16 1;
#X connect 24 0 5 1;
#X connect 25 0 23 0;
#X connect 25 0 24 0;
#X restore 258 98 pd light;
#X obj 226 518 outlet;
#X obj 405 243 t a b;
#X msg 582 244 1;
#X obj 405 218 gemhead 22;
#X obj 405 265 pix_buffer_read framebuffer;
#X obj 394 518 outlet;
#X obj 521 68 inlet;
#X obj 607 421 pix_texture;
#X obj 609 518 rectangle 7.12 4.07;
#X floatatom 675 496 5 0 0 0 - - - 0;
#X floatatom 739 495 5 0 0 0 - - - 0;
#X obj 675 473 / 100;
#X obj 739 472 / 100;
#X floatatom 675 452 5 0 0 0 - - - 0;
#X floatatom 738 451 5 0 0 0 - - - 0;
#X connect 0 0 2 0;
#X connect 1 0 4 0;
#X connect 1 1 13 0;
#X connect 2 0 1 0;
#X connect 3 0 8 0;
#X connect 4 0 9 0;
#X connect 4 1 5 0;
#X connect 5 0 9 0;
#X connect 6 0 11 0;
#X connect 6 1 7 0;
#X connect 7 0 11 1;
#X connect 8 0 0 0;
#X connect 9 0 6 0;
#X connect 10 0 0 0;
#X connect 13 0 15 0;
#X connect 16 0 19 0;
#X connect 16 1 17 0;
#X connect 17 0 19 1;
#X connect 18 0 16 0;
#X connect 19 0 20 0;
#X connect 21 0 22 0;
#X connect 22 0 23 0;
#X connect 24 0 23 1;
#X connect 25 0 23 2;
#X connect 26 0 24 0;
#X connect 27 0 25 0;
#X connect 28 0 26 0;
#X connect 29 0 27 0;
#X restore 124 114 pd alien_visual_rig;
#X msg 1214 69 0;
#X obj 252 1044 pix_texture;
#X obj 255 1081 rectangle 5.36 4.02, f 23;
#X obj 124 558 spigot 1;
#X floatatom 347 1024 5 0 0 0 - - - 0;
#X floatatom 408 1027 5 0 0 0 - - - 0;
#X obj 347 1048 / 10;
#X obj 405 1048 / 10;
#X obj 359 995 unpack 0 0;
#X msg 361 971 27 39;
#X obj 364 945 loadbang;
#X obj 254 856 spigot 1;
#N canvas 619 155 666 388 shader_pipeline_1 0;
#N canvas 264 108 1206 625 multibuffer_shader_pipeline 0;
#X obj 268 763 outlet;
#X obj 37 39 inlet;
#X obj 439 365 inlet;
#X obj 821 324 square 4;
#X obj 816 115 gemhead 31;
#X obj 550 878 mesh_square 10 10;
#X obj 533 276 gemhead 21;
#X obj 108 512 pix_texture \; rectangle 0;
#X obj 230 316 gemframebuffer \; type FLOAT \; dimen 1024 1024 \; rectangle 0 \; texunit 1;
#X obj 531 771 pix_texture \; rectangle 0;
#X obj 533 332 gemframebuffer \; type FLOAT \; dimen 1024 1024 \; rectangle 0 \; texunit 2;
#X obj 821 234 gemframebuffer \; type FLOAT \; dimen 1024 1024 \; rectangle 0;
#X obj 850 528 pix_texture \; rectangle 0;
#X obj 230 293 glsl shader/T_distord;
#X obj 359 195 loadbang;
#X msg 359 218 1;
#X floatatom 359 241 5 0 0 0 - - - 0;
#X msg 359 263 K1 \$1;
#X obj 662 211 loadbang;
#X floatatom 661 256 5 0 0 0 - - - 0;
#X obj 533 309 glsl shader/P_distord;
#X msg 662 279 K \$1;
#X msg 662 234 0.1;
#X obj 821 179 glsl shader/multitexture \; MyTex 1 \; MyTex1 2;
#X floatatom 981 74 5 0 0 0 - - - 0;
#X obj 229 264 gemhead 11;
#X obj 850 507 rotateXYZ 0 0 0;
#X msg 582 490 draw line;
#X msg 582 509 draw point;
#X floatatom 791 765 5 0 0 0 - - - 0;
#X text 782 743 size;
#X msg 582 471 draw default;
#X msg 584 586 grid \$1;
#X floatatom 596 559 5 0 0 0 - - - 0;
#X floatatom 589 610 5 0 0 0 - - - 0;
#X msg 589 628 gridX \$1;
#X floatatom 658 610 5 0 0 0 - - - 0;
#X msg 658 628 gridY \$1;
#X obj 584 655 t a;
#X obj 582 530 t a;
#X obj 550 857 scaleXYZ 3 3 4;
#X floatatom 659 794 5 0 0 0 - - - 0;
#X floatatom 365 377 5 0 0 0 - - - 0;
#X obj 533 414 translateXYZ 0 0 -7;
#X obj 234 404 translateXYZ 0 0 -5;
#X obj 821 298 translateXYZ 0 0 -4;
#X obj 922 691 rectangle 5.36 4.02, f 23;
#X floatatom 1014 636 5 0 0 0 - - - 0;
#X floatatom 1075 637 5 0 0 0 - - - 0;
#X obj 1014 658 / 10;
#X obj 1072 658 / 10;
#X obj 1026 605 unpack 0 0;
#X msg 1028 581 27 39;
#X obj 1031 555 loadbang;
#X obj 905 835 outlet;
#X obj 1070 76 inlet;
#X connect 1 0 26 0;
#X connect 2 0 9 0;
#X connect 2 0 7 0;
#X connect 4 0 23 0;
#X connect 6 0 20 0;
#X connect 7 0 46 0;
#X connect 8 0 44 0;
#X connect 9 0 40 0;
#X connect 10 0 43 0;
#X connect 11 0 45 0;
#X connect 11 1 12 1;
#X connect 12 0 54 0;
#X connect 13 0 8 0;
#X connect 14 0 15 0;
#X connect 15 0 16 0;
#X connect 16 0 17 0;
#X connect 17 0 13 1;
#X connect 18 0 22 0;
#X connect 19 0 21 0;
#X connect 20 0 10 0;
#X connect 21 0 20 1;
#X connect 22 0 19 0;
#X connect 23 0 11 0;
#X connect 24 0 45 3;
#X connect 25 0 13 0;
#X connect 26 0 12 0;
#X connect 27 0 39 0;
#X connect 28 0 39 0;
#X connect 29 0 5 1;
#X connect 31 0 39 0;
#X connect 32 0 38 0;
#X connect 33 0 32 0;
#X connect 34 0 35 0;
#X connect 35 0 38 0;
#X connect 36 0 37 0;
#X connect 37 0 38 0;
#X connect 38 0 5 0;
#X connect 39 0 5 0;
#X connect 40 0 5 0;
#X connect 41 0 40 1;
#X connect 41 0 40 2;
#X connect 41 0 40 3;
#X connect 42 0 44 3;
#X connect 43 0 0 0;
#X connect 44 0 0 0;
#X connect 45 0 3 0;
#X connect 47 0 49 0;
#X connect 48 0 50 0;
#X connect 49 0 46 1;
#X connect 50 0 46 2;
#X connect 51 0 47 0;
#X connect 51 1 48 0;
#X connect 52 0 51 0;
#X connect 53 0 52 0;
#X connect 55 0 51 0;
#X restore 286 288 pd multibuffer_shader_pipeline;
#X obj 213 197 != 1, f 5;
#X obj 214 226 tgl 19 0 empty empty empty 0 -10 0 12 #fcfcfc #000000 #000000 0 1;
#X obj 165 258 spigot 1;
#X obj 212 67 tgl 19 0 empty empty empty 0 -10 0 12 #fcfcfc #000000 #000000 0 1;
#X obj 294 189 != 1, f 5;
#X obj 295 218 tgl 19 0 empty empty empty 0 -10 0 12 #fcfcfc #000000 #000000 0 1;
#X obj 246 250 spigot 1;
#X obj 378 194 != 1, f 5;
#X obj 379 223 tgl 19 0 empty empty empty 0 -10 0 12 #fcfcfc #000000 #000000 0 1;
#X obj 330 255 spigot 1;
#X obj 58 23 inlet;
#X obj 226 16 inlet;
#X obj 506 28 inlet;
#X obj 234 325 outlet;
#X connect 0 0 7 0;
#X connect 1 0 2 0;
#X connect 2 0 3 1;
#X connect 3 0 0 1;
#X connect 4 0 1 0;
#X connect 4 0 5 0;
#X connect 4 0 8 0;
#X connect 5 0 6 0;
#X connect 6 0 7 1;
#X connect 7 0 14 0;
#X connect 8 0 9 0;
#X connect 9 0 10 1;
#X connect 10 0 0 0;
#X connect 11 0 3 0;
#X connect 12 0 4 0;
#X connect 13 0 0 2;
#X restore 435 877 pd shader_pipeline_1;
#X text 430 851 this needs more work;
#X obj 659 715 glsl_fragment;
#X obj 659 877 glsl_program;
#X msg 684 746 print;
#X obj 734 746 change;
#X msg 734 773 link \$1;
#X obj 734 648 loadbang;
#X obj 660 944 square 4;
#X obj 1023 705 metro 33;
#X obj 1022 684 tgl 15 0 empty empty empty 17 7 0 10 #fcfcfc #000000 #000000 0 1;
#X msg 1022 796 iGlobalTime \$1;
#X floatatom 1023 751 5 0 0 0 - - - 0;
#X obj 1024 728 f;
#X obj 1053 728 + 1;
#X obj 1082 725 % 300;
#X obj 1023 773 / 10;
#X text 1147 834 2016 Sofy Yuditskaya;
#X obj 1043 682 loadbang;
#X floatatom 702 563 5 0 0 0 - - - 0;
#X floatatom 744 563 5 0 0 0 - - - 0;
#X floatatom 785 564 5 0 0 0 - - - 0;
#X msg 734 677 open shader/1.frag;
#X obj 410 217 declare -lib Gem;
#X msg 1021 834 iResolution 1400 1400;
#X obj 659 915 translateXYZ 0 0 0;
#X connect 1 0 6 0;
#X connect 2 0 5 1;
#X connect 3 0 6 1;
#X connect 4 0 6 3;
#X connect 5 0 1 0;
#X connect 6 0 9 0;
#X connect 7 0 6 2;
#X connect 8 0 9 1;
#X connect 9 0 26 0;
#X connect 10 0 9 2;
#X connect 11 0 1 1;
#X connect 12 0 10 0;
#X connect 13 0 37 0;
#X connect 14 0 1 2;
#X connect 15 0 44 2;
#X connect 16 0 44 0;
#X connect 17 0 44 1;
#X connect 18 0 19 0;
#X connect 19 0 20 0;
#X connect 19 0 21 0;
#X connect 20 0 44 1;
#X connect 21 0 19 1;
#X connect 22 0 23 0;
#X connect 23 0 15 0;
#X connect 24 0 18 0;
#X connect 24 0 54 1;
#X connect 25 0 26 1;
#X connect 25 0 33 0;
#X connect 26 0 50 0;
#X connect 27 0 26 3;
#X connect 28 0 26 4;
#X connect 29 0 26 5;
#X connect 30 0 26 6;
#X connect 31 0 26 7;
#X connect 32 0 26 8;
#X connect 33 0 26 2;
#X connect 35 0 34 1;
#X connect 36 0 34 2;
#X connect 37 0 41 0;
#X connect 38 0 14 0;
#X connect 39 0 38 0;
#X connect 40 0 39 0;
#X connect 41 0 34 0;
#X connect 42 0 35 0;
#X connect 42 0 24 0;
#X connect 44 0 18 0;
#X connect 44 2 62 0;
#X connect 45 0 51 0;
#X connect 46 0 47 0;
#X connect 47 0 35 0;
#X connect 48 0 6 4;
#X connect 49 0 54 0;
#X connect 50 0 13 0;
#X connect 50 0 49 0;
#X connect 50 0 65 0;
#X connect 50 1 5 0;
#X connect 51 0 2 0;
#X connect 51 0 11 0;
#X connect 51 0 3 0;
#X connect 51 0 8 0;
#X connect 51 0 25 0;
#X connect 52 0 53 0;
#X connect 54 0 16 0;
#X connect 55 0 57 0;
#X connect 56 0 58 0;
#X connect 57 0 53 1;
#X connect 58 0 53 2;
#X connect 59 0 55 0;
#X connect 59 1 56 0;
#X connect 60 0 59 0;
#X connect 61 0 60 0;
#X connect 62 0 52 0;
#X connect 65 0 66 0;
#X connect 65 1 68 0;
#X connect 66 0 88 0;
#X connect 67 0 66 0;
#X connect 68 0 69 0;
#X connect 69 0 66 0;
#X connect 70 0 85 0;
#X connect 72 0 76 0;
#X connect 73 0 72 0;
#X connect 74 0 66 0;
#X connect 75 0 79 0;
#X connect 76 0 77 0;
#X connect 76 0 75 0;
#X connect 77 0 78 0;
#X connect 78 0 76 1;
#X connect 79 0 74 0;
#X connect 81 0 73 0;
#X connect 82 0 88 1;
#X connect 83 0 88 2;
#X connect 84 0 88 3;
#X connect 85 0 65 0;
#X connect 87 0 66 0;
#X connect 88 0 71 0;
#X restore 19 298 pd visuals;
#N canvas 341 58 1129 790 audio 0;
#X obj 216 179 alien;
#X obj 108 265 else/sequencer;
#X obj 190 518 hsl 160 15 500 5000 0 0 empty empty empty -2 -8 0 10 #dcdcdc #000000 #000000 0 1;
#X obj 83 435 vradio 15 1 0 4 empty empty empty 0 -8 0 10 #dcdcdc #000000 #000000 0;
#X text 34 365 lowpass;
#X text 28 381 highpass;
#X text 28 396 bandpass;
#X obj 255 540 hsl 128 15 0 1 0 0 empty empty empty -2 -8 0 10 #dcdcdc #000000 #000000 0 1;
#X text 267 540 Q/resonance (0-1);
#X text 197 515 cutoff/center frequency;
#X obj 83 582 + 1;
#X obj 123 613 else/xselect~ 4 1000 1;
#X obj 123 582 else/svfilter~ 800 0.5;
#X obj 252 561 nbx 5 14 -1e+37 1e+37 0 0 empty empty empty 0 -8 0 10 #dcdcdc #000000 #000000 0 256;
#X obj 187 541 nbx 5 14 -1e+37 1e+37 0 0 empty empty empty 0 -8 0 10 #dcdcdc #000000 #000000 0 256;
#X text 28 411 bandstop;
#X obj 124 679 freeverb~;
#X msg 425 380 roomsize \$1;
#X msg 425 425 damping \$1;
#X msg 425 469 width \$1;
#X msg 425 513 wet \$1;
#X msg 425 557 dry \$1;
#X obj 437 534 hsl 60 18 0 1 0 1 empty empty dry 2 9 1 12 #d8fcd8 #000000 #000000 4100 0;
#X obj 437 490 hsl 60 18 0 1 0 1 empty empty wet 2 9 1 12 #d8fcd8 #000000 #000000 5900 0;
#X obj 437 446 hsl 60 18 0 1 0 1 empty empty width 2 9 1 12 #fcfcc8 #000000 #000000 1800 0;
#X obj 437 402 hsl 60 18 0 2 0 1 empty empty damping 2 9 1 12 #fce0e0 #000000 #000000 5200 0;
#X obj 437 357 hsl 60 18 0.11 1.1 0 1 empty empty roomsize 2 9 1 12 #fce0e0 #000000 #000000 3900 0;
#X floatatom 407 406 3 0 0 0 - - - 0;
#X floatatom 407 451 3 0 0 0 - - - 0;
#X floatatom 407 494 3 0 0 0 - - - 0;
#X floatatom 407 538 3 0 0 0 - - - 0;
#X listbox 230 210 45 0 0 0 - - - 0;
#X obj 109 213 r clock;
#X obj 123 747 throw~ main;
#X floatatom 217 129 5 0 0 0 - - - 0;
#N canvas 23 173 1307 668 drum_kit 0;
#X obj 59 17 inlet;
#X obj 145 18 inlet;
#X obj 538 308 playdir~;
#X obj 538 220 else/sequencer;
#X msg 591 281 woodblock;
#X obj 793 305 playdir~;
#X obj 793 217 else/sequencer;
#X msg 846 278 rides;
#X obj 906 305 playdir~;
#X obj 906 217 else/sequencer;
#X msg 959 278 claps;
#X obj 1018 303 playdir~;
#X obj 1018 215 else/sequencer;
#X msg 1071 276 toms;
#X obj 166 316 playdir~;
#X obj 166 228 else/sequencer;
#X msg 219 289 snares;
#X obj 53 319 playdir~;
#X msg 106 292 kicks;
#X obj 53 231 else/sequencer;
#X obj 397 311 playdir~;
#X obj 397 223 else/sequencer;
#X msg 450 284 openhihats;
#X obj 284 316 playdir~;
#X obj 284 228 else/sequencer;
#X msg 337 289 hihats;
#X obj 78 480 outlet~;
#X obj 676 311 playdir~;
#X obj 676 223 else/sequencer;
#X msg 729 284 perc;
#X obj 1136 302 playdir~;
#X obj 1136 214 else/sequencer;
#X obj 466 49 loadbang;
#X msg 1189 275 crash;
#X obj 145 97 alien_router kick snare hihat openhh woodblock perc ride clap tom crash, f 171;
#X obj 116 205 alien;
#X obj 227 205 alien;
#X obj 342 201 alien;
#X obj 458 195 alien;
#X obj 623 195 alien;
#X obj 740 195 alien;
#X obj 859 188 alien;
#X obj 963 189 alien;
#X obj 1091 183 alien;
#X obj 1204 181 alien;
#X obj 600 16 inlet;
#X msg 600 40 -;
#X obj 660 14 loadbang;
#X connect 0 0 19 0;
#X connect 0 0 15 0;
#X connect 0 0 24 0;
#X connect 0 0 21 0;
#X connect 0 0 3 0;
#X connect 0 0 28 0;
#X connect 0 0 6 0;
#X connect 0 0 9 0;
#X connect 0 0 12 0;
#X connect 0 0 31 0;
#X connect 1 0 34 0;
#X connect 2 0 26 0;
#X connect 3 0 2 0;
#X connect 4 0 2 1;
#X connect 5 0 26 0;
#X connect 6 0 5 0;
#X connect 7 0 5 1;
#X connect 8 0 26 0;
#X connect 9 0 8 0;
#X connect 10 0 8 1;
#X connect 11 0 26 0;
#X connect 12 0 11 0;
#X connect 13 0 11 1;
#X connect 14 0 26 0;
#X connect 15 0 14 0;
#X connect 16 0 14 1;
#X connect 17 0 26 0;
#X connect 18 0 17 1;
#X connect 19 0 17 0;
#X connect 20 0 26 0;
#X connect 21 0 20 0;
#X connect 22 0 20 1;
#X connect 23 0 26 0;
#X connect 24 0 23 0;
#X connect 25 0 23 1;
#X connect 27 0 26 0;
#X connect 28 0 27 0;
#X connect 29 0 27 1;
#X connect 30 0 26 0;
#X connect 31 0 30 0;
#X connect 32 0 18 0;
#X connect 32 0 16 0;
#X connect 32 0 25 0;
#X connect 32 0 22 0;
#X connect 32 0 4 0;
#X connect 32 0 29 0;
#X connect 32 0 7 0;
#X connect 32 0 10 0;
#X connect 32 0 13 0;
#X connect 32 0 33 0;
#X connect 33 0 30 1;
#X connect 34 0 35 0;
#X connect 34 1 36 0;
#X connect 34 2 37 0;
#X connect 34 3 38 0;
#X connect 34 4 39 0;
#X connect 34 5 40 0;
#X connect 34 6 41 0;
#X connect 34 7 42 0;
#X connect 34 8 43 0;
#X connect 34 9 44 0;
#X connect 35 0 19 1;
#X connect 36 0 15 1;
#X connect 37 0 24 1;
#X connect 38 0 21 1;
#X connect 39 0 3 1;
#X connect 40 0 28 1;
#X connect 41 0 6 1;
#X connect 42 0 9 1;
#X connect 43 0 12 1;
#X connect 44 0 31 1;
#X connect 45 0 46 0;
#X connect 46 0 19 1;
#X connect 46 0 15 1;
#X connect 46 0 24 1;
#X connect 46 0 21 1;
#X connect 46 0 3 1;
#X connect 46 0 28 1;
#X connect 46 0 6 1;
#X connect 46 0 9 1;
#X connect 46 0 12 1;
#X connect 46 0 31 1;
#X connect 47 0 46 0;
#X restore 685 324 pd drum_kit;
#X f 23;
#X obj 685 300 r clock;
#X obj 683 483 throw~ main;
#X obj 841 294 bng 19 250 50 0 empty empty empty 0 -10 0 12 #fcfcfc #000000 #000000;
#X obj 627 248 s drums;
#X obj 763 300 r drums;
#X text 865 292 reset;
#N canvas 92 126 721 567 house_beat_1 0;
#X obj 155 35 inlet;
#X msg 59 169 snare (seq - - - 4 4 - - -);
#X msg 172 243 openhh (seq - - 2 -);
#X msg 31 142 kick (seq 3 - - -);
#X msg 136 220 hihat (seq 2 - - -);
#X msg 212 268 woodblock (seq - - - - 5 - - - );
#X obj 153 60 bng 19 250 50 0 empty empty empty 0 -10 0 12 #fcfcfc #000000 #000000;
#X msg 269 321 perc (seq 1);
#X msg 239 293 ride (seq 1 -);
#X msg 280 348 tom (delay (seq 1 - - -) 12);
#X msg 292 375 crash (delay (seq 1 - - -) 32);
#X obj 158 86 t b b b b b b b b b b;
#X msg 96 196 clap (delay (seq 1 2 3 4 5 6 1 1 1 ) 64);
#X obj 32 481 outlet;
#X connect 0 0 6 0;
#X connect 1 0 13 0;
#X connect 2 0 13 0;
#X connect 3 0 13 0;
#X connect 4 0 13 0;
#X connect 5 0 13 0;
#X connect 6 0 11 0;
#X connect 7 0 13 0;
#X connect 8 0 13 0;
#X connect 9 0 13 0;
#X connect 10 0 13 0;
#X connect 11 0 1 0;
#X connect 11 1 12 0;
#X connect 11 2 4 0;
#X connect 11 3 2 0;
#X connect 11 4 5 0;
#X connect 11 5 8 0;
#X connect 11 6 7 0;
#X connect 11 7 9 0;
#X connect 11 8 10 0;
#X connect 11 9 3 0;
#X connect 12 0 13 0;
#X restore 628 223 pd house_beat_1;
#X obj 626 149 bng 19 250 50 0 empty empty empty 0 -10 0 12 #fcfcfc #000000 #000000;
#X msg 635 173 120;
#X obj 636 194 s tempo;
#X obj 828 243 s drums;
#X obj 828 148 bng 19 250 50 0 empty empty empty 0 -10 0 12 #fcfcfc #000000 #000000;
#X obj 838 193 s tempo;
#N canvas 92 126 721 567 dnb_1 0;
#X obj 155 35 inlet;
#X msg 136 220 hihat (seq 2 - - -);
#X msg 212 268 woodblock (seq - - - - 5 - - - );
#X obj 153 60 bng 19 250 50 0 empty empty empty 0 -10 0 12 #fcfcfc #000000 #000000;
#X msg 239 293 ride (seq 1 -);
#X msg 280 348 tom (delay (seq 1 - - -) 12);
#X msg 292 375 crash (delay (seq 1 - - -) 32);
#X obj 158 86 t b b b b b b b b b b;
#X msg 96 196 clap (delay (seq 1 2 3 4 5 6 1 1 1 ) 64);
#X obj 32 481 outlet;
#X obj 69 58 bng 19 250 50 0 empty empty empty 0 -10 0 12 #fcfcfc #000000 #000000;
#X obj 35 93 t b b;
#X msg 31 142 kick (seq 3 - - - - - - - - - 3 - - - - -), f 44;
#X msg 269 321 perc (delay (seq 5) 100);
#X msg 172 243 openhh (seq - - 11 -);
#X msg 59 169 snare (seq - - - - 9 - - -);
#X connect 0 0 3 0;
#X connect 1 0 9 0;
#X connect 2 0 9 0;
#X connect 3 0 7 0;
#X connect 4 0 9 0;
#X connect 5 0 9 0;
#X connect 6 0 9 0;
#X connect 7 0 15 0;
#X connect 7 1 8 0;
#X connect 7 2 1 0;
#X connect 7 3 14 0;
#X connect 7 4 2 0;
#X connect 7 5 4 0;
#X connect 7 6 13 0;
#X connect 7 7 5 0;
#X connect 7 8 6 0;
#X connect 7 9 12 0;
#X connect 8 0 9 0;
#X connect 10 0 11 0;
#X connect 11 0 12 0;
#X connect 11 1 15 0;
#X connect 12 0 9 0;
#X connect 13 0 9 0;
#X connect 14 0 9 0;
#X connect 15 0 9 0;
#X restore 829 218 pd dnb_1;
#X msg 837 172 85;
#X obj 746 243 s drums;
#X obj 746 148 bng 19 250 50 0 empty empty empty 0 -10 0 12 #fcfcfc #000000 #000000;
#X obj 756 193 s tempo;
#N canvas 92 126 721 567 grime_1 0;
#X obj 155 35 inlet;
#X obj 153 60 bng 19 250 50 0 empty empty empty 0 -10 0 12 #fcfcfc #000000 #000000;
#X msg 239 293 ride (seq 1 -);
#X msg 280 348 tom (delay (seq 1 - - -) 12);
#X obj 158 86 t b b b b b b b b b b;
#X msg 96 196 clap (delay (seq 1 2 3 4 5 6 1 1 1 ) 64);
#X obj 32 481 outlet;
#X obj 69 58 bng 19 250 50 0 empty empty empty 0 -10 0 12 #fcfcfc #000000 #000000;
#X obj 35 93 t b b;
#X msg 31 142 kick (seq 3 - - - - - - - - - 3 - - - - -), f 44;
#X msg 269 321 perc (delay (seq 5) 100);
#X msg 136 220 hihat (delay (seq 2 2 2 -) 5);
#X msg 59 169 snare (seq - - - - - - - - 2 - - - - - - -);
#X msg 212 268 woodblock (delay (seq - - - - 5 - - (seq 1 2 3) - ) 16);
#X msg 292 375 crash (delay (seq 1 - - -) 32);
#X msg 172 243 openhh (seq - - 2 -);
#X connect 0 0 1 0;
#X connect 1 0 4 0;
#X connect 2 0 6 0;
#X connect 3 0 6 0;
#X connect 4 0 12 0;
#X connect 4 1 5 0;
#X connect 4 2 11 0;
#X connect 4 3 15 0;
#X connect 4 4 13 0;
#X connect 4 5 2 0;
#X connect 4 6 10 0;
#X connect 4 7 3 0;
#X connect 4 8 14 0;
#X connect 4 9 9 0;
#X connect 5 0 6 0;
#X connect 7 0 8 0;
#X connect 8 0 9 0;
#X connect 8 1 12 0;
#X connect 9 0 6 0;
#X connect 10 0 6 0;
#X connect 11 0 6 0;
#X connect 12 0 6 0;
#X connect 13 0 6 0;
#X connect 14 0 6 0;
#X connect 15 0 6 0;
#X restore 747 218 pd grime_1;
#X msg 755 172 100;
#X obj 713 381 else/revdelay~ 111;
#X obj 712 446 *~;
#X obj 730 420 tgl 19 0 empty empty empty 0 -10 0 12 #fcfcfc #000000 #000000 0 1;
#X text 759 418 press this for a reverse fx;
#X obj 123 483 alien_monosynth~;
#X floatatom 234 458 5 0 0 0 - - - 0;
#X obj 311 74 alien;
#X obj 217 101 else/sequencer;
#X obj 217 75 r clock;
#X obj 108 289 - 12;
#X obj 312 23 loadbang;
#X floatatom 211 355 5 0 0 0 - - - 0;
#X obj 155 379 alien_monosynth2~;
#X floatatom 271 355 5 0 0 0 - - - 0;
#X obj 746 123 loadbang;
#X obj 213 304 loadbang;
#X msg 312 49 (seq (delay 60 16) (delay 61 16) (delay 65 16) (delay 58 16)), f 62;
#X msg 251 329 1000;
#X msg 296 328 200;
#X msg 218 153 (gate (arp (chord \$1 4) 0 15) 3);
#X msg 213 328 11;
#X obj 124 703 *~ 0.56;
#X connect 0 0 1 1;
#X connect 0 0 31 0;
#X connect 1 0 65 0;
#X connect 1 0 68 0;
#X connect 2 0 14 0;
#X connect 3 0 10 0;
#X connect 7 0 13 0;
#X connect 10 0 11 0;
#X connect 11 0 16 0;
#X connect 12 0 11 0;
#X connect 12 1 11 1;
#X connect 12 2 11 2;
#X connect 12 3 11 3;
#X connect 13 0 12 2;
#X connect 14 0 12 1;
#X connect 16 0 77 0;
#X connect 17 0 16 0;
#X connect 18 0 16 0;
#X connect 19 0 16 0;
#X connect 20 0 16 0;
#X connect 21 0 16 0;
#X connect 22 0 21 0;
#X connect 22 0 30 0;
#X connect 23 0 20 0;
#X connect 23 0 29 0;
#X connect 24 0 19 0;
#X connect 24 0 28 0;
#X connect 25 0 18 0;
#X connect 25 0 27 0;
#X connect 26 0 17 0;
#X connect 32 0 1 0;
#X connect 34 0 75 0;
#X connect 35 0 37 0;
#X connect 35 0 56 0;
#X connect 36 0 35 0;
#X connect 38 0 35 2;
#X connect 40 0 35 1;
#X connect 42 0 39 0;
#X connect 43 0 42 0;
#X connect 43 0 44 0;
#X connect 44 0 45 0;
#X connect 47 0 49 0;
#X connect 47 0 50 0;
#X connect 49 0 46 0;
#X connect 50 0 48 0;
#X connect 52 0 54 0;
#X connect 52 0 55 0;
#X connect 54 0 51 0;
#X connect 55 0 53 0;
#X connect 56 0 57 0;
#X connect 57 0 37 0;
#X connect 58 0 57 1;
#X connect 60 0 12 0;
#X connect 61 0 60 1;
#X connect 62 0 63 1;
#X connect 63 0 34 0;
#X connect 64 0 63 0;
#X connect 65 0 60 0;
#X connect 66 0 72 0;
#X connect 67 0 68 1;
#X connect 68 0 12 0;
#X connect 69 0 68 2;
#X connect 70 0 52 0;
#X connect 71 0 76 0;
#X connect 71 0 73 0;
#X connect 71 0 74 0;
#X connect 72 0 62 0;
#X connect 73 0 61 0;
#X connect 74 0 69 0;
#X connect 75 0 0 0;
#X connect 76 0 67 0;
#X connect 77 0 33 0;
#X restore 19 270 pd audio;
#N canvas 156 292 454 304 gemwin 0;
#X obj 132 136 gemwin;
#X obj 67 89 outlet;
#X obj 67 10 inlet;
#X obj 67 41 route create;
#X msg 67 70 set destroy;
#X msg 182 68 set create;
#X msg 132 112 create \, 1;
#X msg 238 112 destroy;
#N canvas 91 178 247 179 Gem.init 0;
#X obj 59 26 loadbang;
#X msg 118 81 reset;
#X obj 118 113 outlet;
#X obj 59 45 t b b;
#X connect 0 0 3 0;
#X connect 1 0 2 0;
#X connect 3 1 1 0;
#X restore 289 80 pd Gem.init;
#X msg 114 205 reset \, dimen 1200 1100 \, create \, 1;
#X obj 180 13 inlet;
#X connect 2 0 3 0;
#X connect 3 0 4 0;
#X connect 3 0 6 0;
#X connect 3 1 5 0;
#X connect 3 1 7 0;
#X connect 4 0 1 0;
#X connect 5 0 1 0;
#X connect 6 0 0 0;
#X connect 7 0 0 0;
#X connect 8 0 0 0;
#X connect 9 0 0 0;
#X connect 10 0 9 0;
#X restore 403 305 pd gemwin;
#X msg 422 274 destroy;
#X text 402 35 alien - audio visual example;
#X msg 405 243 create;
#X connect 0 0 3 0;
#X connect 1 0 0 0;
#X connect 4 0 2 0;
#X connect 7 0 0 1;
#X connect 12 0 11 0;
#X connect 14 0 11 0;
