#N canvas 454 446 450 300 12;
#X obj 80 142 else/sequencer;
#X obj 171 116 alien \$1;
#X obj 71 36 inlet;
#X obj 81 222 outlet;
#X obj 168 39 inlet;
#X obj 81 174 playdir~ \$1;
#X connect 0 0 5 0;
#X connect 1 0 0 1;
#X connect 2 0 0 0;
#X connect 4 0 1 0;
#X connect 5 0 3 0;
