#N canvas 281 95 704 781 12;
#X obj 212 337 file glob;
#X obj 210 515 list store;
#X msg 211 364 append \$1;
#X msg 340 465 bang;
#X msg 76 687 get \$1;
#X floatatom 94 558 5 0 0 0 - - - 0;
#X obj 89 516 list length;
#X obj 76 662 % 3;
#X obj 240 638 readsf~ 2;
#X obj 298 668 bng 15 250 50 0 empty empty empty 17 7 0 10 #fcfcfc #000000 #000000;
#X msg 240 606 open \$1 \, 1;
#X obj 41 149 inlet;
#X obj 447 34 inlet;
#X obj 241 690 outlet~;
#X obj 214 176 t a b, f 20;
#X obj 231 438 del 2;
#X obj 232 398 b;
#X obj 92 478 list store;
#X obj 312 689 outlet;
#X obj 447 70 pack s s;
#X obj 447 94 list fromsymbol;
#X obj 447 118 makefilename %/sounds/%s;
#X obj 207 213 symbol \$1;
#X obj 207 237 list append /*;
#X obj 207 261 list trim;
#X obj 207 285 symbol;
#X obj 164 111 loadbang;
#X connect 0 0 2 0;
#X connect 1 0 10 0;
#X connect 2 0 1 0;
#X connect 2 0 16 0;
#X connect 2 0 17 0;
#X connect 3 0 1 1;
#X connect 3 0 17 1;
#X connect 4 0 1 0;
#X connect 5 0 7 1;
#X connect 6 0 5 0;
#X connect 7 0 4 0;
#X connect 8 0 13 0;
#X connect 8 2 9 0;
#X connect 9 0 18 0;
#X connect 10 0 8 0;
#X connect 11 0 7 0;
#X connect 14 0 22 0;
#X connect 14 1 3 0;
#X connect 15 0 17 0;
#X connect 16 0 15 0;
#X connect 17 0 6 0;
#X connect 19 0 20 0;
#X connect 20 0 21 0;
#X connect 22 0 23 0;
#X connect 23 0 24 0;
#X connect 24 0 25 0;
#X connect 25 0 0 0;
#X connect 26 0 14 0;
