#N canvas 708 34 683 513 10;
#X declare -lib Gem;
#X msg 92 142 reset;
#X text 135 141 reset the window;
#X obj 24 242 gemhead;
#X obj 24 280 glsl_fragment;
#X obj 24 442 glsl_program;
#X msg 49 311 print;
#X obj 99 311 change;
#X msg 99 338 link \$1;
#X obj 99 213 loadbang;
#X text 157 339 link the fragment shader id;
#X text 115 280 load the fragment shader;
#X text 111 444 run the shader program;
#X obj 22 166 gemwin;
#X msg 32 112 create \, 1;
#X msg 98 113 destroy;
#X obj 23 81 tgl 15 0 empty empty empty 17 7 0 10 #fcfcfc #000000 #000000 0 1;
#X obj 24 478 square 4;
#X obj 474 322 metro 33;
#X obj 473 301 tgl 15 0 empty empty empty 17 7 0 10 #fcfcfc #000000 #000000 0 1;
#X floatatom 474 368 5 0 0 0 - - - 0;
#X text 84 475 shader affects things below it in render chain;
#X obj 475 345 f;
#X obj 504 345 + 1;
#X obj 533 342 % 300;
#X obj 474 390 / 10;
#X text 598 451 2016 Sofy Yuditskaya;
#X obj 494 299 loadbang;
#X obj 15 26 declare -lib Gem;
#X msg 301 159 a \$1;
#X msg 341 159 b \$1;
#X msg 375 158 c \$1;
#X floatatom 301 95 5 0 0 0 - - - 0;
#X obj 301 115 / 100;
#X floatatom 301 136 5 0 0 0 - - - 0;
#X floatatom 342 98 5 0 0 0 - - - 0;
#X obj 342 118 / 100;
#X floatatom 342 139 5 0 0 0 - - - 0;
#X floatatom 385 97 5 0 0 0 - - - 0;
#X obj 385 117 / 100;
#X floatatom 385 138 5 0 0 0 - - - 0;
#X msg 473 413 iTime \$1;
#X floatatom 430 95 5 0 0 0 - - - 0;
#X obj 430 115 / 100;
#X floatatom 430 136 5 0 0 0 - - - 0;
#X msg 420 156 d \$1;
#X floatatom 472 94 5 0 0 0 - - - 0;
#X obj 472 114 / 100;
#X floatatom 472 135 5 0 0 0 - - - 0;
#X floatatom 513 97 5 0 0 0 - - - 0;
#X obj 513 117 / 100;
#X floatatom 513 138 5 0 0 0 - - - 0;
#X floatatom 556 96 5 0 0 0 - - - 0;
#X obj 556 116 / 100;
#X floatatom 556 137 5 0 0 0 - - - 0;
#X floatatom 601 94 5 0 0 0 - - - 0;
#X obj 601 114 / 100;
#X floatatom 601 135 5 0 0 0 - - - 0;
#X msg 472 158 e \$1;
#X msg 512 158 f \$1;
#X msg 546 157 g \$1;
#X msg 591 155 h \$1;
#X msg 472 451 iResolution 500 500;
#X msg 99 242 open shaders/\$1.frag;
#X floatatom 200 201 5 0 0 0 - - - 0;
#X msg 318 33 0;
#X text 130 25 Thanks to Dan Wilcox;
#X connect 0 0 12 0;
#X connect 2 0 3 0;
#X connect 3 0 4 0;
#X connect 3 1 6 0;
#X connect 4 0 16 0;
#X connect 5 0 4 0;
#X connect 6 0 7 0;
#X connect 7 0 4 0;
#X connect 8 0 62 0;
#X connect 13 0 12 0;
#X connect 13 0 61 0;
#X connect 14 0 12 0;
#X connect 15 0 12 0;
#X connect 17 0 21 0;
#X connect 18 0 17 0;
#X connect 19 0 24 0;
#X connect 21 0 22 0;
#X connect 21 0 19 0;
#X connect 22 0 23 0;
#X connect 23 0 21 1;
#X connect 24 0 40 0;
#X connect 26 0 18 0;
#X connect 28 0 4 0;
#X connect 29 0 4 0;
#X connect 30 0 4 0;
#X connect 31 0 32 0;
#X connect 32 0 33 0;
#X connect 33 0 28 0;
#X connect 34 0 35 0;
#X connect 35 0 36 0;
#X connect 36 0 29 0;
#X connect 37 0 38 0;
#X connect 38 0 39 0;
#X connect 39 0 30 0;
#X connect 40 0 4 0;
#X connect 41 0 42 0;
#X connect 42 0 43 0;
#X connect 43 0 44 0;
#X connect 44 0 4 0;
#X connect 45 0 46 0;
#X connect 46 0 47 0;
#X connect 47 0 57 0;
#X connect 48 0 49 0;
#X connect 49 0 50 0;
#X connect 50 0 58 0;
#X connect 51 0 52 0;
#X connect 52 0 53 0;
#X connect 53 0 59 0;
#X connect 54 0 55 0;
#X connect 55 0 56 0;
#X connect 56 0 60 0;
#X connect 57 0 4 0;
#X connect 58 0 4 0;
#X connect 59 0 4 0;
#X connect 60 0 4 0;
#X connect 61 0 4 0;
#X connect 62 0 3 0;
#X connect 63 0 62 0;
#X connect 64 0 31 0;
#X connect 64 0 34 0;
#X connect 64 0 37 0;
#X connect 64 0 41 0;
#X connect 64 0 45 0;
#X connect 64 0 48 0;
#X connect 64 0 51 0;
#X connect 64 0 54 0;
