#N canvas 70 33 1400 880 12;
#X obj 30 170 loadbang;
#X msg 30 200 seeds /Users/monz/Desktop/gf/alien/novelty/seeds.txt;
#X obj 30 260 bng 22 250 50 0 empty empty tick 0 -10 0 12 #fcfcfc #000000 #000000;
#X obj 30 320 ns_corpus evo35_corpus 256;
#X obj 30 370 ns_seq_propose mutate 0.3;
#X obj 30 420 t a a a a;
#X obj 30 470 alien;
#X obj 30 520 t l l;
#X obj 30 570 ns_seq_features;
#X obj 30 620 ns_archive evo35_seq_bc;
#X floatatom 30 670 10 0 0 0 seq_novelty - - 0;
#X floatatom 175 670 8 0 0 0 seq_arch_size - - 0;
#X obj 350 520 ns_quality;
#X floatatom 350 570 8 0 0 0 quality - - 0;
#X obj 600 420 ns_ast_features;
#X obj 600 470 ns_archive evo35_ast_bc;
#X floatatom 600 520 10 0 0 0 ast_novelty - - 0;
#X floatatom 745 520 8 0 0 0 ast_arch_size - - 0;
#X obj 30 730 expr max($f1\\\, $f2);
#X obj 30 770 pack f f;
#X obj 200 770 list prepend admit;
#X obj 200 800 list trim;
#X obj 870 320 ns_seq_info;
#X obj 870 360 unpack f f;
#X floatatom 869 428 6 0 0 0 ast_size - - 0;
#X floatatom 950 400 6 0 0 0 ast_depth - - 0;
#X obj 466 808 outlet;
#X obj 163 85 inlet;
#X connect 0 0 1 0;
#X connect 1 0 3 1;
#X connect 2 0 3 0;
#X connect 3 0 4 0;
#X connect 4 0 5 0;
#X connect 5 0 6 0;
#X connect 5 1 22 0;
#X connect 5 2 3 0;
#X connect 5 3 14 0;
#X connect 6 0 7 0;
#X connect 6 0 26 0;
#X connect 7 0 8 0;
#X connect 7 1 12 0;
#X connect 8 0 9 0;
#X connect 8 0 18 0;
#X connect 12 0 13 0;
#X connect 12 0 19 1;
#X connect 14 0 15 0;
#X connect 15 0 16 0;
#X connect 15 0 18 1;
#X connect 15 1 17 0;
#X connect 18 0 19 0;
#X connect 19 0 20 0;
#X connect 20 0 21 0;
#X connect 21 0 3 1;
#X connect 22 0 23 0;
#X connect 23 0 24 0;
#X connect 23 1 25 0;
#X connect 27 0 3 0;
