#N canvas 80 80 1080 760 12;
#X text 30 18 ns_* — novelty-search externals for Pure Data;
#X text 30 36 reference patch for the V1 externals (archive \, mutate \, log \, spigot \, grid_stats). see PRINCIPLES.md for the framework.;
#X text 30 90 ── ns_grid_stats + ns_archive ─────────────────────────────────────;
#X text 30 110 click an example grid \; the stats are extracted and admitted to the archive \, returning a novelty score.;
#X msg 30 150 1 0 1 0 0 1 0 1 1 0 1 0 0 1 0 1;
#X text 200 152 checkerboard;
#X msg 30 178 1 1 1 1 0 0 0 0 1 1 1 1 0 0 0 0;
#X text 200 180 horizontal stripes;
#X msg 30 206 1 1 0 0 1 1 0 0 1 1 0 0 1 1 0 0;
#X text 200 208 vertical stripes;
#X msg 30 234 1 0 0 0 0 1 0 0 0 0 1 0 0 0 0 1;
#X text 200 236 diagonal;
#X msg 30 262 0 0 0 0 0 0 0 0 0 0 0 0 0 0 0 0;
#X text 200 264 empty;
#X msg 30 290 1 1 1 1 1 1 1 1 1 1 1 1 1 1 1 1;
#X text 200 292 full;
#X msg 30 318 0 0 0 0 0 1 1 0 0 1 1 0 0 0 0 0;
#X text 200 320 centered cluster;
#X msg 30 346 1 0 0 1 0 0 0 0 0 0 0 0 1 0 0 1;
#X text 200 348 four corners;
#X obj 30 390 ns_grid_stats 4 4;
#X text 200 392 → 6-dim BC: density entropy sym_h sym_v components mean_comp_size;
#X obj 30 430 ns_archive shared;
#X text 200 432 hot list = score + admit \; right inlet = control;
#X floatatom 30 480 8 0 0 0 novelty - - 0;
#X floatatom 130 480 6 0 0 0 size - - 0;
#X obj 30 520 print novelty;
#X obj 130 520 print size;
#X text 30 560 ── control messages on right inlet of ns_archive ────────────────;
#X msg 30 590 query 0.5 0.3 0.2 0.4 0.6 0.1;
#X msg 220 590 clear;
#X msg 290 590 k 5;
#X msg 350 590 metric cosine;
#X msg 480 590 metric l2;
#X msg 30 620 save /tmp/ns_archive.bin;
#X msg 230 620 load /tmp/ns_archive.bin;
#X obj 30 660 r ns_archive_proxy_dummy;
#X text 30 690 (right-inlet messages go to the right inlet of ns_archive above);
#X text 580 90 ── ns_mutate ────────────────────────────────────────────────────────────;
#X text 580 110 perturb a list with N(0 \, sigma) or bit-flip.;
#X msg 580 150 0.5 0.5 0.5 0.5 0.5 0.5;
#X obj 580 190 ns_mutate gaussian 0.1;
#X obj 580 230 print mutated;
#X msg 580 270 mode bitflip;
#X msg 720 270 rate 0.3;
#X msg 820 270 seed 42;
#X msg 580 300 clip 0 1;
#X text 580 340 ── ns_log ──────────────────────────────────────────────────────;
#X text 580 360 append rows to a file as CSV (default) or JSONL.;
#X obj 580 400 ns_log /tmp/ns_run.csv;
#X msg 580 440 0.42 0.6 0.3 0.2 0.4 0.1;
#X msg 580 470 tag run01;
#X msg 720 470 header novelty density entropy sym_h sym_v comps mean;
#X msg 580 500 flush;
#X msg 670 500 close;
#X obj 580 540 print logged;
#X text 580 580 ── ns_spigot: threshold gate ──────────────────────────────────;
#X text 580 600 cold right inlet caches a list \; hot left float (score) triggers the decision.;
#X obj 580 630 ns_spigot 0.3;
#X msg 580 670 0.45;
#X msg 640 670 0.15;
#X msg 700 670 1 2 3 4 5;
#X obj 580 700 print passed;
#X obj 720 700 print blocked;
#X text 880 670 score-hi \, score-lo \, payload (cold right);
#X text 30 720 (see ns_alien_evo2.pd for AST-level evolution \; ns_4x4.pd for the canonical demo.);
#X connect 4 0 20 0;
#X connect 6 0 20 0;
#X connect 8 0 20 0;
#X connect 10 0 20 0;
#X connect 12 0 20 0;
#X connect 14 0 20 0;
#X connect 16 0 20 0;
#X connect 18 0 20 0;
#X connect 20 0 22 0;
#X connect 22 0 24 0;
#X connect 22 0 26 0;
#X connect 22 1 25 0;
#X connect 22 1 27 0;
#X connect 29 0 22 1;
#X connect 30 0 22 1;
#X connect 31 0 22 1;
#X connect 32 0 22 1;
#X connect 33 0 22 1;
#X connect 34 0 22 1;
#X connect 35 0 22 1;
#X connect 39 0 40 0;
#X connect 40 0 41 0;
#X connect 42 0 40 1;
#X connect 43 0 40 1;
#X connect 44 0 40 1;
#X connect 45 0 40 1;
#X connect 49 0 54 0;
#X connect 50 0 49 0;
#X connect 51 0 49 1;
#X connect 52 0 49 1;
#X connect 53 0 49 1;
#X connect 58 0 62 0;
#X connect 59 0 58 0;
#X connect 60 0 58 0;
#X connect 61 0 58 1;
#X connect 58 1 63 0;
