#N canvas 80 80 1100 760 12;
#X text 30 16 ns_* 4×4 novelty search — validation patch;
#X text 30 36 random binary 4×4 grid → ns_grid_stats → ns_archive → ns_log. open log file at /tmp/ns_4x4_run.csv after a run.;
#X text 30 56 first row will have score = 1e30 (empty archive on iter 1 \, encoded). filter out in pandas.;
#X obj 30 100 bng 22 250 50 0 empty empty tick 0 -10 0 12 #fcfcfc #000000 #000000;
#X obj 70 100 tgl 22 0 empty empty empty 0 -10 0 12 #fcfcfc #000000 #000000 0 1;
#X obj 110 100 metro 100;
#X text 175 105 ↑ tick once \, or toggle for continuous;
#X obj 80 145 t b b;
#X obj 30 185 f 0;
#X obj 30 215 + 1;
#X obj 30 245 t f f f;
#X floatatom 30 285 6 0 0 0 iter - - 0;
#X msg 130 185 0;
#X text 165 188 reset counter (msg 0 → f right);
#X text 30 320 random 4×4 grid generation: 16-bang trigger fires R→L \, fills pack cold inlets first then hot at the end.;
#X obj 30 350 t b b b b b b b b b b b b b b b b;
#X obj 30 390 random 2;
#X obj 78 390 random 2;
#X obj 126 390 random 2;
#X obj 174 390 random 2;
#X obj 222 390 random 2;
#X obj 270 390 random 2;
#X obj 318 390 random 2;
#X obj 366 390 random 2;
#X obj 414 390 random 2;
#X obj 462 390 random 2;
#X obj 510 390 random 2;
#X obj 558 390 random 2;
#X obj 606 390 random 2;
#X obj 654 390 random 2;
#X obj 702 390 random 2;
#X obj 750 390 random 2;
#X obj 30 430 pack f f f f f f f f f f f f f f f f;
#X obj 30 470 ns_grid_stats 4 4;
#X obj 280 470 print stats;
#X obj 30 510 ns_archive shared;
#X floatatom 30 550 10 0 0 0 score - - 0;
#X floatatom 145 550 8 0 0 0 size - - 0;
#X obj 250 550 print score;
#X obj 30 600 pack f f f;
#X obj 30 640 ns_log /tmp/ns_4x4_run.csv;
#X msg 200 600 header iter score size;
#X msg 410 600 tag run01;
#X msg 510 600 flush;
#X msg 580 600 close;
#X msg 30 690 clear;
#X msg 100 690 save /tmp/ns_4x4_archive.bin;
#X msg 380 690 load /tmp/ns_4x4_archive.bin;
#X text 30 720 archive controls (right inlet of ns_archive). save on demand \; clear to start fresh.;
#X connect 3 0 7 0;
#X connect 4 0 5 0;
#X connect 5 0 7 0;
#X connect 7 0 15 0;
#X connect 7 1 8 0;
#X connect 8 0 9 0;
#X connect 9 0 10 0;
#X connect 10 0 11 0;
#X connect 10 1 8 1;
#X connect 10 2 39 2;
#X connect 12 0 8 1;
#X connect 15 0 16 0;
#X connect 15 1 17 0;
#X connect 15 2 18 0;
#X connect 15 3 19 0;
#X connect 15 4 20 0;
#X connect 15 5 21 0;
#X connect 15 6 22 0;
#X connect 15 7 23 0;
#X connect 15 8 24 0;
#X connect 15 9 25 0;
#X connect 15 10 26 0;
#X connect 15 11 27 0;
#X connect 15 12 28 0;
#X connect 15 13 29 0;
#X connect 15 14 30 0;
#X connect 15 15 31 0;
#X connect 16 0 32 0;
#X connect 17 0 32 1;
#X connect 18 0 32 2;
#X connect 19 0 32 3;
#X connect 20 0 32 4;
#X connect 21 0 32 5;
#X connect 22 0 32 6;
#X connect 23 0 32 7;
#X connect 24 0 32 8;
#X connect 25 0 32 9;
#X connect 26 0 32 10;
#X connect 27 0 32 11;
#X connect 28 0 32 12;
#X connect 29 0 32 13;
#X connect 30 0 32 14;
#X connect 31 0 32 15;
#X connect 32 0 33 0;
#X connect 33 0 34 0;
#X connect 33 0 35 0;
#X connect 35 0 36 0;
#X connect 35 0 38 0;
#X connect 35 0 39 0;
#X connect 35 1 37 0;
#X connect 35 1 39 1;
#X connect 39 0 40 0;
#X connect 41 0 40 1;
#X connect 42 0 40 1;
#X connect 43 0 40 1;
#X connect 44 0 40 1;
#X connect 45 0 35 1;
#X connect 46 0 35 1;
#X connect 47 0 35 1;
