#N canvas 152 48 1280 880 12;
#X text 86 19 ns_alien_evo2 — feedback loop: novel offspring become parents (complexification);
#X text 332 28 [ns_seq_propose] proposes a child from cached parent. The child is evaluated AND;
#X text 391 38 cached in [ns_spigot]. If the score crosses threshold (novel) \, the cached child;
#X text 332 68 feeds back to [ns_seq_propose]'s right inlet as the new parent — building a lineage;
#X text 332 88 of progressively more complex offspring. Watch ast_size grow over time.;
#X obj 30 130 bng 22 250 50 0 empty empty tick 0 -10 0 12 #fcfcfc #000000 #000000;
#X obj 70 130 tgl 22 0 empty empty empty 0 -10 0 12 #fcfcfc #000000 #000000 0 1;
#X obj 110 130 metro 500;
#X text 175 135 ↑ tick once \, or toggle for continuous;
#X msg 30 180 (seq 60 - 64 - 67 -);
#X msg 220 180 (euclid 5 8);
#X msg 320 180 (drunk 16 3 60);
#X msg 440 180 (mirror (seq 60 62 64 65 67));
#X msg 660 180 (rotate (seq 60 64 67 72) 2);
#X text 30 210 ↑ click any seed once to start the lineage. then bang or toggle metro to evolve.;
#X obj 30 250 ns_seq_propose mutate 0.3;
#X obj 280 250 print expr;
#X obj 30 290 t a a a;
#X obj 30 330 alien;
#X obj 280 330 ns_seq_info;
#X obj 280 370 unpack f f;
#X obj 30 410 ns_seq_features;
#X obj 280 410 print seq;
#X floatatom 400 410 6 0 0 0 ast_size - - 0;
#X floatatom 480 410 6 0 0 0 ast_depth - - 0;
#X obj 30 450 ns_archive shared_alien_evo3;
#X floatatom 30 490 10 0 0 0 score - - 0;
#X floatatom 145 490 8 0 0 0 archive_size - - 0;
#X obj 280 490 print score;
#X text 165 540 ← cached novel offspring feed back as new parent (right inlet of ns_seq_propose);
#X obj 30 580 pack f f f;
#X obj 30 620 ns_log /tmp/ns_alien_evo3.csv;
#X msg 700 250 mode mutate;
#X msg 800 250 mode random;
#X msg 700 280 rate 0.3;
#X msg 800 280 rate 0.15;
#X msg 734 397 threshold 0.5;
#X msg 844 365 threshold 0.3;
#X msg 725 454 threshold 0.8;
#X msg 700 620 header score ast_size ast_depth;
#X msg 950 620 tag evo_feedback;
#X msg 700 660 flush;
#X msg 760 660 close;
#X msg 700 720 clear;
#X msg 760 720 save /tmp/ns_alien_evo3.bin;
#X msg 961 720 load /tmp/ns_alien_evo3.bin;
#X text 700 760 ↑ control messages: propose right inlet (mode/rate) \, spigot right (threshold) \, log right (header/tag/flush/close) \, archive right (clear/save/load).;
#X obj 30 540 ns_spigot 0.3;
#X connect 5 0 15 0;
#X connect 6 0 7 0;
#X connect 7 0 15 0;
#X connect 9 0 15 0;
#X connect 10 0 15 0;
#X connect 11 0 15 0;
#X connect 12 0 15 0;
#X connect 13 0 15 0;
#X connect 15 0 16 0;
#X connect 15 0 17 0;
#X connect 17 0 18 0;
#X connect 17 1 19 0;
#X connect 17 2 47 1;
#X connect 18 0 21 0;
#X connect 18 0 22 0;
#X connect 19 0 20 0;
#X connect 20 0 23 0;
#X connect 20 0 30 1;
#X connect 20 1 24 0;
#X connect 20 1 30 2;
#X connect 21 0 25 0;
#X connect 25 0 26 0;
#X connect 25 0 28 0;
#X connect 25 0 30 0;
#X connect 25 0 47 0;
#X connect 25 1 27 0;
#X connect 30 0 31 0;
#X connect 32 0 15 1;
#X connect 33 0 15 1;
#X connect 34 0 15 1;
#X connect 35 0 15 1;
#X connect 36 0 47 1;
#X connect 37 0 47 1;
#X connect 38 0 47 1;
#X connect 39 0 31 1;
#X connect 40 0 31 1;
#X connect 41 0 31 1;
#X connect 42 0 31 1;
#X connect 43 0 25 1;
#X connect 44 0 25 1;
#X connect 45 0 25 1;
#X connect 47 0 15 1;
